<svg width="24" height="19" viewBox="0 0 24 19" fill="none" xmlns="http://www.w3.org/2000/svg">
<path d="M2.26146 13.5591C2.47242 15.1323 3.77664 16.3614 5.3574 16.5044C6.95124 16.6487 8.59539 16.7857 10.2761 16.7857C11.9568 16.7857 13.6009 16.6487 15.1948 16.5045C16.7755 16.3614 18.0797 15.1323 18.2907 13.5591C18.4341 12.49 18.5522 11.3938 18.5522 10.277C18.5522 9.16021 18.4341 8.06399 18.2907 6.99492C18.0797 5.42178 16.7755 4.19265 15.1948 4.04959C13.6009 3.90534 11.9568 3.76831 10.2761 3.76831C8.59539 3.76831 6.95124 3.90534 5.3574 4.04959C3.77664 4.19265 2.47242 5.42178 2.26146 6.99492C2.11809 8.06399 2 9.16021 2 10.277C2 11.3938 2.11809 12.49 2.26146 13.5591Z" fill="white"/>
<path d="M9.05875 3.79065C7.80011 3.83524 6.56435 3.94032 5.35744 4.04955C3.77668 4.19261 2.47242 5.42175 2.26146 6.99489C2.11809 8.06396 2 9.16018 2 10.277C2 11.3938 2.11809 12.49 2.26146 13.5591C2.47242 15.1322 3.77664 16.3614 5.3574 16.5044C6.95124 16.6487 8.59539 16.7857 10.2761 16.7857C11.9568 16.7857 13.6009 16.6487 15.1948 16.5044C16.7755 16.3614 18.0797 15.1322 18.2907 13.5591C18.3847 12.8579 18.4679 12.1451 18.514 11.4224" stroke="#020202" stroke-width="2.475" stroke-linecap="round"/>
<path d="M16.6418 2.12174L10.6366 7.48059L9.86599 10.3309C9.742 10.7895 10.3499 11.2235 10.9191 11.0827L14.5258 10.191L19.9424 5.70864C21.0289 4.80956 20.7983 3.01689 19.4781 2.09853C18.5521 1.4544 17.3789 1.464 16.6418 2.12174Z" fill="#608EE9" stroke="#020202" stroke-width="2.475" stroke-linecap="round" stroke-linejoin="round"/>
</svg>
