<svg width="28" height="26" viewBox="0 0 28 26" fill="none" xmlns="http://www.w3.org/2000/svg">
<path d="M2.62605 20.7201C2.82262 22.3004 4.09563 23.5466 5.67965 23.7109C8.47983 24.0012 11.3919 24.3335 14.3812 24.3335C17.3706 24.3335 20.2826 24.0012 23.0828 23.7109C24.6668 23.5466 25.9398 22.3004 26.1364 20.7201C26.4392 18.2855 26.7625 15.7584 26.7625 13.1668C26.7625 10.5751 26.4392 8.048 26.1364 5.61343C25.9398 4.0331 24.6668 2.78689 23.0828 2.62265C20.2826 2.33231 17.3706 2 14.3812 2C11.3919 2 8.47983 2.33231 5.67965 2.62265C4.09563 2.78688 2.82262 4.03309 2.62605 5.61343C2.32321 8.048 2 10.5751 2 13.1668C2 15.7584 2.32321 18.2855 2.62605 20.7201Z" fill="#5BC0BE" stroke="#020202" stroke-width="2.475" stroke-linejoin="round"/>
<path d="M2.61322 5.64764L12.338 13.3153C13.5363 14.2601 15.2261 14.2601 16.4244 13.3153L26.1492 5.64764" stroke="#020202" stroke-width="2.475" stroke-linejoin="round"/>
</svg>
