<svg width="349" height="40" viewBox="0 0 349 40" fill="none" xmlns="http://www.w3.org/2000/svg">
<rect x="0.5" y="0.5" width="333" height="39" rx="19.5" fill="white" stroke="#DADCE0"/>
<path d="M119.773 23.4365C119.773 23.2314 119.742 23.0492 119.678 22.8896C119.618 22.7301 119.511 22.5843 119.356 22.4521C119.201 22.32 118.983 22.1924 118.7 22.0693C118.422 21.9417 118.067 21.8118 117.634 21.6797C117.16 21.5339 116.722 21.3721 116.321 21.1943C115.925 21.012 115.578 20.8024 115.282 20.5654C114.986 20.3239 114.756 20.0482 114.592 19.7383C114.428 19.4238 114.346 19.0615 114.346 18.6514C114.346 18.2458 114.43 17.8766 114.599 17.5439C114.772 17.2113 115.016 16.9242 115.33 16.6826C115.649 16.4365 116.025 16.2474 116.458 16.1152C116.891 15.9785 117.369 15.9102 117.894 15.9102C118.632 15.9102 119.268 16.0469 119.801 16.3203C120.339 16.5938 120.751 16.9606 121.038 17.4209C121.33 17.8812 121.476 18.3893 121.476 18.9453H119.773C119.773 18.6172 119.703 18.3278 119.562 18.0771C119.425 17.8219 119.215 17.6214 118.933 17.4756C118.655 17.3298 118.301 17.2568 117.873 17.2568C117.467 17.2568 117.13 17.3184 116.861 17.4414C116.592 17.5645 116.392 17.7308 116.26 17.9404C116.128 18.1501 116.062 18.387 116.062 18.6514C116.062 18.8382 116.105 19.0091 116.191 19.1641C116.278 19.3145 116.41 19.4557 116.588 19.5879C116.766 19.7155 116.989 19.8363 117.258 19.9502C117.527 20.0641 117.843 20.1735 118.208 20.2783C118.759 20.4424 119.24 20.6247 119.65 20.8252C120.061 21.0212 120.402 21.2445 120.676 21.4951C120.949 21.7458 121.154 22.0306 121.291 22.3496C121.428 22.6641 121.496 23.0218 121.496 23.4229C121.496 23.8421 121.412 24.2204 121.243 24.5576C121.075 24.8903 120.833 25.1751 120.519 25.4121C120.209 25.6445 119.835 25.8245 119.397 25.9521C118.965 26.0752 118.481 26.1367 117.948 26.1367C117.47 26.1367 116.998 26.0729 116.533 25.9453C116.073 25.8177 115.654 25.624 115.275 25.3643C114.897 25.0999 114.596 24.7718 114.373 24.3799C114.15 23.9834 114.038 23.5208 114.038 22.9922H115.754C115.754 23.3158 115.809 23.5915 115.918 23.8193C116.032 24.0472 116.189 24.234 116.39 24.3799C116.59 24.5212 116.823 24.626 117.087 24.6943C117.356 24.7627 117.643 24.7969 117.948 24.7969C118.349 24.7969 118.684 24.7399 118.953 24.626C119.227 24.512 119.432 24.3525 119.568 24.1475C119.705 23.9424 119.773 23.7054 119.773 23.4365ZM124.863 18.6035V26H123.209V18.6035H124.863ZM123.1 16.6621C123.1 16.4115 123.182 16.2041 123.346 16.04C123.514 15.8714 123.747 15.7871 124.043 15.7871C124.335 15.7871 124.565 15.8714 124.733 16.04C124.902 16.2041 124.986 16.4115 124.986 16.6621C124.986 16.9082 124.902 17.1133 124.733 17.2773C124.565 17.4414 124.335 17.5234 124.043 17.5234C123.747 17.5234 123.514 17.4414 123.346 17.2773C123.182 17.1133 123.1 16.9082 123.1 16.6621ZM131.655 18.6035H133.152V25.7949C133.152 26.4603 133.011 27.0254 132.729 27.4902C132.446 27.9551 132.052 28.3083 131.546 28.5498C131.04 28.7959 130.454 28.9189 129.789 28.9189C129.507 28.9189 129.192 28.8779 128.846 28.7959C128.504 28.7139 128.171 28.5817 127.848 28.3994C127.529 28.2217 127.262 27.987 127.048 27.6953L127.82 26.7246C128.085 27.0391 128.376 27.2692 128.695 27.415C129.014 27.5609 129.349 27.6338 129.7 27.6338C130.078 27.6338 130.4 27.5632 130.664 27.4219C130.933 27.2852 131.14 27.0824 131.286 26.8135C131.432 26.5446 131.505 26.2165 131.505 25.8291V20.2783L131.655 18.6035ZM126.631 22.3838V22.2402C126.631 21.6797 126.699 21.1693 126.836 20.709C126.973 20.2441 127.169 19.8454 127.424 19.5127C127.679 19.1755 127.989 18.918 128.354 18.7402C128.718 18.5579 129.131 18.4668 129.591 18.4668C130.069 18.4668 130.477 18.5534 130.814 18.7266C131.156 18.8997 131.441 19.1481 131.669 19.4717C131.897 19.7907 132.075 20.1735 132.202 20.6201C132.334 21.0622 132.432 21.5544 132.496 22.0967V22.5547C132.437 23.0833 132.337 23.5664 132.195 24.0039C132.054 24.4414 131.867 24.8197 131.635 25.1387C131.402 25.4577 131.115 25.7038 130.773 25.877C130.436 26.0501 130.037 26.1367 129.577 26.1367C129.126 26.1367 128.718 26.0433 128.354 25.8564C127.993 25.6696 127.684 25.4076 127.424 25.0703C127.169 24.7331 126.973 24.3366 126.836 23.8809C126.699 23.4206 126.631 22.9215 126.631 22.3838ZM128.278 22.2402V22.3838C128.278 22.721 128.31 23.0355 128.374 23.3271C128.442 23.6188 128.545 23.8763 128.682 24.0996C128.823 24.3184 129.001 24.4915 129.215 24.6191C129.434 24.7422 129.691 24.8037 129.987 24.8037C130.375 24.8037 130.691 24.7217 130.938 24.5576C131.188 24.3936 131.38 24.1725 131.512 23.8945C131.648 23.612 131.744 23.2975 131.799 22.9512V21.7139C131.771 21.445 131.715 21.1943 131.628 20.9619C131.546 20.7295 131.434 20.5267 131.293 20.3535C131.152 20.1758 130.974 20.0391 130.76 19.9434C130.546 19.8431 130.293 19.793 130.001 19.793C129.705 19.793 129.447 19.8568 129.229 19.9844C129.01 20.112 128.83 20.2874 128.688 20.5107C128.552 20.734 128.449 20.9938 128.381 21.29C128.312 21.5863 128.278 21.903 128.278 22.2402ZM136.745 20.1826V26H135.098V18.6035H136.649L136.745 20.1826ZM136.451 22.0283L135.918 22.0215C135.923 21.4974 135.995 21.0166 136.137 20.5791C136.283 20.1416 136.483 19.7656 136.738 19.4512C136.998 19.1367 137.308 18.8952 137.668 18.7266C138.028 18.5534 138.429 18.4668 138.871 18.4668C139.227 18.4668 139.548 18.5169 139.835 18.6172C140.127 18.7129 140.375 18.8701 140.58 19.0889C140.79 19.3076 140.949 19.5924 141.059 19.9434C141.168 20.2897 141.223 20.7158 141.223 21.2217V26H139.568V21.2148C139.568 20.8594 139.516 20.5791 139.411 20.374C139.311 20.1644 139.163 20.0163 138.967 19.9297C138.775 19.8385 138.536 19.793 138.249 19.793C137.966 19.793 137.714 19.8522 137.49 19.9707C137.267 20.0892 137.078 20.251 136.923 20.4561C136.772 20.6611 136.656 20.8981 136.574 21.167C136.492 21.4359 136.451 21.723 136.451 22.0283ZM148.654 18.6035V26H147V18.6035H148.654ZM146.891 16.6621C146.891 16.4115 146.973 16.2041 147.137 16.04C147.305 15.8714 147.538 15.7871 147.834 15.7871C148.126 15.7871 148.356 15.8714 148.524 16.04C148.693 16.2041 148.777 16.4115 148.777 16.6621C148.777 16.9082 148.693 17.1133 148.524 17.2773C148.356 17.4414 148.126 17.5234 147.834 17.5234C147.538 17.5234 147.305 17.4414 147.137 17.2773C146.973 17.1133 146.891 16.9082 146.891 16.6621ZM152.343 20.1826V26H150.695V18.6035H152.247L152.343 20.1826ZM152.049 22.0283L151.516 22.0215C151.52 21.4974 151.593 21.0166 151.734 20.5791C151.88 20.1416 152.081 19.7656 152.336 19.4512C152.596 19.1367 152.906 18.8952 153.266 18.7266C153.626 18.5534 154.027 18.4668 154.469 18.4668C154.824 18.4668 155.146 18.5169 155.433 18.6172C155.724 18.7129 155.973 18.8701 156.178 19.0889C156.387 19.3076 156.547 19.5924 156.656 19.9434C156.766 20.2897 156.82 20.7158 156.82 21.2217V26H155.166V21.2148C155.166 20.8594 155.114 20.5791 155.009 20.374C154.909 20.1644 154.76 20.0163 154.564 19.9297C154.373 19.8385 154.134 19.793 153.847 19.793C153.564 19.793 153.311 19.8522 153.088 19.9707C152.865 20.0892 152.675 20.251 152.521 20.4561C152.37 20.6611 152.254 20.8981 152.172 21.167C152.09 21.4359 152.049 21.723 152.049 22.0283ZM164.498 24.3594L166.207 18.6035H167.26L166.973 20.3262L165.25 26H164.307L164.498 24.3594ZM163.493 18.6035L164.826 24.3867L164.936 26H163.883L161.88 18.6035H163.493ZM168.859 24.3184L170.151 18.6035H171.758L169.762 26H168.709L168.859 24.3184ZM167.438 18.6035L169.126 24.291L169.338 26H168.395L166.651 20.3193L166.364 18.6035H167.438ZM174.893 18.6035V26H173.238V18.6035H174.893ZM173.129 16.6621C173.129 16.4115 173.211 16.2041 173.375 16.04C173.544 15.8714 173.776 15.7871 174.072 15.7871C174.364 15.7871 174.594 15.8714 174.763 16.04C174.931 16.2041 175.016 16.4115 175.016 16.6621C175.016 16.9082 174.931 17.1133 174.763 17.2773C174.594 17.4414 174.364 17.5234 174.072 17.5234C173.776 17.5234 173.544 17.4414 173.375 17.2773C173.211 17.1133 173.129 16.9082 173.129 16.6621ZM180.338 18.6035V19.8066H176.168V18.6035H180.338ZM177.371 16.792H179.019V23.9561C179.019 24.1839 179.05 24.3594 179.114 24.4824C179.183 24.6009 179.276 24.6807 179.395 24.7217C179.513 24.7627 179.652 24.7832 179.812 24.7832C179.925 24.7832 180.035 24.7764 180.14 24.7627C180.244 24.749 180.329 24.7354 180.393 24.7217L180.399 25.9795C180.263 26.0205 180.103 26.057 179.921 26.0889C179.743 26.1208 179.538 26.1367 179.306 26.1367C178.927 26.1367 178.592 26.0706 178.301 25.9385C178.009 25.8018 177.781 25.5807 177.617 25.2754C177.453 24.9701 177.371 24.5645 177.371 24.0586V16.792ZM183.486 15.5V26H181.846V15.5H183.486ZM183.199 22.0283L182.666 22.0215C182.671 21.5111 182.741 21.0394 182.878 20.6064C183.019 20.1735 183.215 19.7975 183.466 19.4785C183.721 19.1549 184.026 18.9066 184.382 18.7334C184.737 18.5557 185.132 18.4668 185.564 18.4668C185.929 18.4668 186.257 18.5169 186.549 18.6172C186.845 18.7174 187.1 18.8792 187.314 19.1025C187.529 19.3213 187.69 19.6084 187.8 19.9639C187.914 20.3148 187.971 20.7432 187.971 21.249V26H186.316V21.2354C186.316 20.8799 186.264 20.5973 186.159 20.3877C186.059 20.1781 185.911 20.0277 185.715 19.9365C185.519 19.8408 185.28 19.793 184.997 19.793C184.701 19.793 184.439 19.8522 184.211 19.9707C183.988 20.0892 183.801 20.251 183.65 20.4561C183.5 20.6611 183.386 20.8981 183.309 21.167C183.236 21.4359 183.199 21.723 183.199 22.0283ZM201.432 20.9141V24.7148C201.29 24.9017 201.069 25.1068 200.769 25.3301C200.472 25.5488 200.078 25.738 199.586 25.8975C199.094 26.057 198.481 26.1367 197.747 26.1367C197.123 26.1367 196.551 26.0319 196.031 25.8223C195.512 25.6081 195.063 25.2959 194.685 24.8857C194.311 24.4756 194.021 23.9766 193.816 23.3887C193.611 22.7962 193.509 22.1217 193.509 21.3652V20.6748C193.509 19.9229 193.602 19.2529 193.789 18.665C193.98 18.0726 194.254 17.5713 194.609 17.1611C194.965 16.751 195.393 16.4411 195.895 16.2314C196.4 16.0173 196.972 15.9102 197.61 15.9102C198.426 15.9102 199.101 16.0469 199.634 16.3203C200.172 16.5892 200.586 16.9629 200.878 17.4414C201.17 17.9199 201.354 18.4668 201.432 19.082H199.75C199.695 18.7357 199.588 18.4258 199.429 18.1523C199.274 17.8789 199.05 17.6647 198.759 17.5098C198.472 17.3503 198.098 17.2705 197.638 17.2705C197.241 17.2705 196.893 17.3457 196.592 17.4961C196.291 17.6465 196.04 17.8675 195.84 18.1592C195.644 18.4508 195.496 18.8063 195.396 19.2256C195.295 19.6449 195.245 20.1234 195.245 20.6611V21.3652C195.245 21.9121 195.302 22.3975 195.416 22.8213C195.535 23.2451 195.703 23.6029 195.922 23.8945C196.145 24.1862 196.416 24.4072 196.735 24.5576C197.054 24.7035 197.414 24.7764 197.815 24.7764C198.207 24.7764 198.529 24.7445 198.779 24.6807C199.03 24.6123 199.228 24.5326 199.374 24.4414C199.524 24.3457 199.641 24.2546 199.723 24.168V22.1924H197.651V20.9141H201.432ZM203.104 22.3838V22.2266C203.104 21.6934 203.181 21.1989 203.336 20.7432C203.491 20.2829 203.714 19.8841 204.006 19.5469C204.302 19.2051 204.662 18.9408 205.086 18.7539C205.514 18.5625 205.997 18.4668 206.535 18.4668C207.077 18.4668 207.561 18.5625 207.984 18.7539C208.413 18.9408 208.775 19.2051 209.071 19.5469C209.368 19.8841 209.593 20.2829 209.748 20.7432C209.903 21.1989 209.98 21.6934 209.98 22.2266V22.3838C209.98 22.917 209.903 23.4115 209.748 23.8672C209.593 24.3229 209.368 24.7217 209.071 25.0635C208.775 25.4007 208.415 25.665 207.991 25.8564C207.567 26.0433 207.087 26.1367 206.549 26.1367C206.007 26.1367 205.521 26.0433 205.093 25.8564C204.669 25.665 204.309 25.4007 204.013 25.0635C203.716 24.7217 203.491 24.3229 203.336 23.8672C203.181 23.4115 203.104 22.917 203.104 22.3838ZM204.751 22.2266V22.3838C204.751 22.7165 204.785 23.0309 204.854 23.3271C204.922 23.6234 205.029 23.8831 205.175 24.1064C205.321 24.3298 205.507 24.5052 205.735 24.6328C205.963 24.7604 206.234 24.8242 206.549 24.8242C206.854 24.8242 207.118 24.7604 207.342 24.6328C207.57 24.5052 207.757 24.3298 207.902 24.1064C208.048 23.8831 208.155 23.6234 208.224 23.3271C208.297 23.0309 208.333 22.7165 208.333 22.3838V22.2266C208.333 21.8984 208.297 21.5885 208.224 21.2969C208.155 21.0007 208.046 20.7386 207.896 20.5107C207.75 20.2829 207.563 20.1051 207.335 19.9775C207.112 19.8454 206.845 19.7793 206.535 19.7793C206.225 19.7793 205.956 19.8454 205.729 19.9775C205.505 20.1051 205.321 20.2829 205.175 20.5107C205.029 20.7386 204.922 21.0007 204.854 21.2969C204.785 21.5885 204.751 21.8984 204.751 22.2266ZM211.297 22.3838V22.2266C211.297 21.6934 211.374 21.1989 211.529 20.7432C211.684 20.2829 211.908 19.8841 212.199 19.5469C212.495 19.2051 212.855 18.9408 213.279 18.7539C213.708 18.5625 214.191 18.4668 214.729 18.4668C215.271 18.4668 215.754 18.5625 216.178 18.7539C216.606 18.9408 216.968 19.2051 217.265 19.5469C217.561 19.8841 217.786 20.2829 217.941 20.7432C218.096 21.1989 218.174 21.6934 218.174 22.2266V22.3838C218.174 22.917 218.096 23.4115 217.941 23.8672C217.786 24.3229 217.561 24.7217 217.265 25.0635C216.968 25.4007 216.608 25.665 216.185 25.8564C215.761 26.0433 215.28 26.1367 214.742 26.1367C214.2 26.1367 213.715 26.0433 213.286 25.8564C212.862 25.665 212.502 25.4007 212.206 25.0635C211.91 24.7217 211.684 24.3229 211.529 23.8672C211.374 23.4115 211.297 22.917 211.297 22.3838ZM212.944 22.2266V22.3838C212.944 22.7165 212.979 23.0309 213.047 23.3271C213.115 23.6234 213.222 23.8831 213.368 24.1064C213.514 24.3298 213.701 24.5052 213.929 24.6328C214.157 24.7604 214.428 24.8242 214.742 24.8242C215.048 24.8242 215.312 24.7604 215.535 24.6328C215.763 24.5052 215.95 24.3298 216.096 24.1064C216.242 23.8831 216.349 23.6234 216.417 23.3271C216.49 23.0309 216.526 22.7165 216.526 22.3838V22.2266C216.526 21.8984 216.49 21.5885 216.417 21.2969C216.349 21.0007 216.239 20.7386 216.089 20.5107C215.943 20.2829 215.756 20.1051 215.528 19.9775C215.305 19.8454 215.038 19.7793 214.729 19.7793C214.419 19.7793 214.15 19.8454 213.922 19.9775C213.699 20.1051 213.514 20.2829 213.368 20.5107C213.222 20.7386 213.115 21.0007 213.047 21.2969C212.979 21.5885 212.944 21.8984 212.944 22.2266ZM224.542 18.6035H226.039V25.7949C226.039 26.4603 225.898 27.0254 225.615 27.4902C225.333 27.9551 224.938 28.3083 224.433 28.5498C223.927 28.7959 223.341 28.9189 222.676 28.9189C222.393 28.9189 222.079 28.8779 221.732 28.7959C221.391 28.7139 221.058 28.5817 220.734 28.3994C220.415 28.2217 220.149 27.987 219.935 27.6953L220.707 26.7246C220.971 27.0391 221.263 27.2692 221.582 27.415C221.901 27.5609 222.236 27.6338 222.587 27.6338C222.965 27.6338 223.286 27.5632 223.551 27.4219C223.82 27.2852 224.027 27.0824 224.173 26.8135C224.319 26.5446 224.392 26.2165 224.392 25.8291V20.2783L224.542 18.6035ZM219.518 22.3838V22.2402C219.518 21.6797 219.586 21.1693 219.723 20.709C219.859 20.2441 220.055 19.8454 220.311 19.5127C220.566 19.1755 220.876 18.918 221.24 18.7402C221.605 18.5579 222.017 18.4668 222.478 18.4668C222.956 18.4668 223.364 18.5534 223.701 18.7266C224.043 18.8997 224.328 19.1481 224.556 19.4717C224.784 19.7907 224.961 20.1735 225.089 20.6201C225.221 21.0622 225.319 21.5544 225.383 22.0967V22.5547C225.324 23.0833 225.223 23.5664 225.082 24.0039C224.941 24.4414 224.754 24.8197 224.521 25.1387C224.289 25.4577 224.002 25.7038 223.66 25.877C223.323 26.0501 222.924 26.1367 222.464 26.1367C222.013 26.1367 221.605 26.0433 221.24 25.8564C220.88 25.6696 220.57 25.4076 220.311 25.0703C220.055 24.7331 219.859 24.3366 219.723 23.8809C219.586 23.4206 219.518 22.9215 219.518 22.3838ZM221.165 22.2402V22.3838C221.165 22.721 221.197 23.0355 221.261 23.3271C221.329 23.6188 221.432 23.8763 221.568 24.0996C221.71 24.3184 221.887 24.4915 222.102 24.6191C222.32 24.7422 222.578 24.8037 222.874 24.8037C223.261 24.8037 223.578 24.7217 223.824 24.5576C224.075 24.3936 224.266 24.1725 224.398 23.8945C224.535 23.612 224.631 23.2975 224.686 22.9512V21.7139C224.658 21.445 224.601 21.1943 224.515 20.9619C224.433 20.7295 224.321 20.5267 224.18 20.3535C224.038 20.1758 223.861 20.0391 223.646 19.9434C223.432 19.8431 223.179 19.793 222.888 19.793C222.591 19.793 222.334 19.8568 222.115 19.9844C221.896 20.112 221.716 20.2874 221.575 20.5107C221.438 20.734 221.336 20.9938 221.268 21.29C221.199 21.5863 221.165 21.903 221.165 22.2402ZM229.762 15.5V26H228.107V15.5H229.762ZM235.077 26.1367C234.53 26.1367 234.036 26.0479 233.594 25.8701C233.156 25.6878 232.783 25.4349 232.473 25.1113C232.167 24.7878 231.933 24.4072 231.769 23.9697C231.604 23.5322 231.522 23.0605 231.522 22.5547V22.2812C231.522 21.7025 231.607 21.1784 231.775 20.709C231.944 20.2396 232.179 19.8385 232.479 19.5059C232.78 19.1686 233.136 18.9111 233.546 18.7334C233.956 18.5557 234.4 18.4668 234.879 18.4668C235.408 18.4668 235.87 18.5557 236.267 18.7334C236.663 18.9111 236.991 19.1618 237.251 19.4854C237.515 19.8044 237.711 20.1849 237.839 20.627C237.971 21.069 238.037 21.5566 238.037 22.0898V22.7939H232.322V21.6113H236.41V21.4814C236.401 21.1852 236.342 20.9072 236.232 20.6475C236.128 20.3877 235.966 20.1781 235.747 20.0186C235.528 19.859 235.237 19.7793 234.872 19.7793C234.599 19.7793 234.355 19.8385 234.141 19.957C233.931 20.071 233.756 20.2373 233.614 20.4561C233.473 20.6748 233.364 20.9391 233.286 21.249C233.213 21.5544 233.177 21.8984 233.177 22.2812V22.5547C233.177 22.8783 233.22 23.179 233.307 23.457C233.398 23.7305 233.53 23.9697 233.703 24.1748C233.876 24.3799 234.086 24.5417 234.332 24.6602C234.578 24.7741 234.858 24.8311 235.173 24.8311C235.569 24.8311 235.923 24.7513 236.232 24.5918C236.542 24.4323 236.811 24.2067 237.039 23.915L237.907 24.7559C237.748 24.9883 237.54 25.2116 237.285 25.4258C237.03 25.6354 236.718 25.8063 236.349 25.9385C235.984 26.0706 235.56 26.1367 235.077 26.1367Z" fill="#3C4043"/>
<path fill-rule="evenodd" clip-rule="evenodd" d="M99.6 20.2273C99.6 19.5182 99.5364 18.8364 99.4182 18.1818H90V22.05H95.3818C95.15 23.3 94.4455 24.3591 93.3864 25.0682V27.5773H96.6182C98.5091 25.8364 99.6 23.2727 99.6 20.2273Z" fill="#4285F4"/>
<path fill-rule="evenodd" clip-rule="evenodd" d="M90 30C92.7 30 94.9636 29.1045 96.6182 27.5772L93.3864 25.0681C92.4909 25.6681 91.3455 26.0227 90 26.0227C87.3955 26.0227 85.1909 24.2636 84.4045 21.9H81.0636V24.4909C82.7091 27.7591 86.0909 30 90 30Z" fill="#34A853"/>
<path fill-rule="evenodd" clip-rule="evenodd" d="M84.4045 21.8999C84.2045 21.2999 84.0909 20.659 84.0909 19.9999C84.0909 19.3409 84.2045 18.6999 84.4045 18.0999V15.509H81.0636C80.3864 16.859 80 18.3863 80 19.9999C80 21.6136 80.3864 23.1409 81.0636 24.4909L84.4045 21.8999Z" fill="#FBBC05"/>
<path fill-rule="evenodd" clip-rule="evenodd" d="M90 13.9773C91.4682 13.9773 92.7864 14.4818 93.8227 15.4727L96.6909 12.6045C94.9591 10.9909 92.6955 10 90 10C86.0909 10 82.7091 12.2409 81.0636 15.5091L84.4045 18.1C85.1909 15.7364 87.3955 13.9773 90 13.9773Z" fill="#EA4335"/>
</svg>
