<svg width="213" height="40" viewBox="0 0 213 40" fill="none" xmlns="http://www.w3.org/2000/svg">
<rect x="0.5" y="0.5" width="192" height="39" rx="19.5" fill="white" stroke="#DADCE0"/>
<path d="M53.2605 23.4365C53.2605 23.2314 53.2286 23.0492 53.1647 22.8896C53.1055 22.7301 52.9984 22.5843 52.8435 22.4521C52.6885 22.32 52.4698 22.1924 52.1872 22.0693C51.9092 21.9417 51.5537 21.8118 51.1208 21.6797C50.6468 21.5339 50.2093 21.3721 49.8083 21.1943C49.4118 21.012 49.0655 20.8024 48.7692 20.5654C48.473 20.3239 48.2429 20.0482 48.0788 19.7383C47.9147 19.4238 47.8327 19.0615 47.8327 18.6514C47.8327 18.2458 47.917 17.8766 48.0856 17.5439C48.2588 17.2113 48.5026 16.9242 48.8171 16.6826C49.1361 16.4365 49.5121 16.2474 49.945 16.1152C50.378 15.9785 50.8565 15.9102 51.3806 15.9102C52.1189 15.9102 52.7546 16.0469 53.2878 16.3203C53.8256 16.5938 54.238 16.9606 54.5251 17.4209C54.8168 17.8812 54.9626 18.3893 54.9626 18.9453H53.2605C53.2605 18.6172 53.1898 18.3278 53.0485 18.0771C52.9118 17.8219 52.7022 17.6214 52.4196 17.4756C52.1416 17.3298 51.7884 17.2568 51.3601 17.2568C50.9545 17.2568 50.6172 17.3184 50.3483 17.4414C50.0795 17.5645 49.8789 17.7308 49.7468 17.9404C49.6146 18.1501 49.5485 18.387 49.5485 18.6514C49.5485 18.8382 49.5918 19.0091 49.6784 19.1641C49.765 19.3145 49.8972 19.4557 50.0749 19.5879C50.2526 19.7155 50.4759 19.8363 50.7448 19.9502C51.0137 20.0641 51.3304 20.1735 51.695 20.2783C52.2465 20.4424 52.7272 20.6247 53.1374 20.8252C53.5476 21.0212 53.8894 21.2445 54.1628 21.4951C54.4362 21.7458 54.6413 22.0306 54.778 22.3496C54.9147 22.6641 54.9831 23.0218 54.9831 23.4229C54.9831 23.8421 54.8988 24.2204 54.7302 24.5576C54.5616 24.8903 54.32 25.1751 54.0056 25.4121C53.6957 25.6445 53.322 25.8245 52.8845 25.9521C52.4515 26.0752 51.9685 26.1367 51.4353 26.1367C50.9567 26.1367 50.4851 26.0729 50.0202 25.9453C49.5599 25.8177 49.1407 25.624 48.7624 25.3643C48.3842 25.0999 48.0834 24.7718 47.8601 24.3799C47.6368 23.9834 47.5251 23.5208 47.5251 22.9922H49.2409C49.2409 23.3158 49.2956 23.5915 49.405 23.8193C49.5189 24.0472 49.6761 24.234 49.8767 24.3799C50.0772 24.5212 50.3096 24.626 50.5739 24.6943C50.8428 24.7627 51.1299 24.7969 51.4353 24.7969C51.8363 24.7969 52.1713 24.7399 52.4401 24.626C52.7136 24.512 52.9187 24.3525 53.0554 24.1475C53.1921 23.9424 53.2605 23.7054 53.2605 23.4365ZM58.3503 18.6035V26H56.696V18.6035H58.3503ZM56.5866 16.6621C56.5866 16.4115 56.6687 16.2041 56.8327 16.04C57.0013 15.8714 57.2338 15.7871 57.53 15.7871C57.8217 15.7871 58.0518 15.8714 58.2204 16.04C58.389 16.2041 58.4733 16.4115 58.4733 16.6621C58.4733 16.9082 58.389 17.1133 58.2204 17.2773C58.0518 17.4414 57.8217 17.5234 57.53 17.5234C57.2338 17.5234 57.0013 17.4414 56.8327 17.2773C56.6687 17.1133 56.5866 16.9082 56.5866 16.6621ZM65.1423 18.6035H66.6394V25.7949C66.6394 26.4603 66.4981 27.0254 66.2155 27.4902C65.933 27.9551 65.5388 28.3083 65.0329 28.5498C64.5271 28.7959 63.9414 28.9189 63.2761 28.9189C62.9935 28.9189 62.6791 28.8779 62.3327 28.7959C61.9909 28.7139 61.6582 28.5817 61.3347 28.3994C61.0157 28.2217 60.7491 27.987 60.5349 27.6953L61.3073 26.7246C61.5717 27.0391 61.8633 27.2692 62.1823 27.415C62.5013 27.5609 62.8363 27.6338 63.1872 27.6338C63.5655 27.6338 63.8868 27.5632 64.1511 27.4219C64.42 27.2852 64.6273 27.0824 64.7731 26.8135C64.919 26.5446 64.9919 26.2165 64.9919 25.8291V20.2783L65.1423 18.6035ZM60.1179 22.3838V22.2402C60.1179 21.6797 60.1862 21.1693 60.323 20.709C60.4597 20.2441 60.6556 19.8454 60.9108 19.5127C61.1661 19.1755 61.4759 18.918 61.8405 18.7402C62.2051 18.5579 62.6175 18.4668 63.0778 18.4668C63.5564 18.4668 63.9642 18.5534 64.3015 18.7266C64.6433 18.8997 64.9281 19.1481 65.156 19.4717C65.3838 19.7907 65.5616 20.1735 65.6892 20.6201C65.8213 21.0622 65.9193 21.5544 65.9831 22.0967V22.5547C65.9239 23.0833 65.8236 23.5664 65.6823 24.0039C65.5411 24.4414 65.3542 24.8197 65.1218 25.1387C64.8894 25.4577 64.6022 25.7038 64.2605 25.877C63.9232 26.0501 63.5244 26.1367 63.0642 26.1367C62.613 26.1367 62.2051 26.0433 61.8405 25.8564C61.4805 25.6696 61.1706 25.4076 60.9108 25.0703C60.6556 24.7331 60.4597 24.3366 60.323 23.8809C60.1862 23.4206 60.1179 22.9215 60.1179 22.3838ZM61.7653 22.2402V22.3838C61.7653 22.721 61.7972 23.0355 61.861 23.3271C61.9294 23.6188 62.0319 23.8763 62.1687 24.0996C62.3099 24.3184 62.4877 24.4915 62.7019 24.6191C62.9206 24.7422 63.1781 24.8037 63.4743 24.8037C63.8617 24.8037 64.1784 24.7217 64.4245 24.5576C64.6752 24.3936 64.8666 24.1725 64.9987 23.8945C65.1355 23.612 65.2312 23.2975 65.2858 22.9512V21.7139C65.2585 21.445 65.2015 21.1943 65.1149 20.9619C65.0329 20.7295 64.9213 20.5267 64.78 20.3535C64.6387 20.1758 64.461 20.0391 64.2468 19.9434C64.0326 19.8431 63.7797 19.793 63.488 19.793C63.1918 19.793 62.9343 19.8568 62.7155 19.9844C62.4968 20.112 62.3168 20.2874 62.1755 20.5107C62.0388 20.734 61.9362 20.9938 61.8679 21.29C61.7995 21.5863 61.7653 21.903 61.7653 22.2402ZM70.2321 20.1826V26H68.5847V18.6035H70.1364L70.2321 20.1826ZM69.9382 22.0283L69.405 22.0215C69.4095 21.4974 69.4825 21.0166 69.6237 20.5791C69.7696 20.1416 69.9701 19.7656 70.2253 19.4512C70.4851 19.1367 70.795 18.8952 71.155 18.7266C71.515 18.5534 71.9161 18.4668 72.3581 18.4668C72.7136 18.4668 73.0349 18.5169 73.322 18.6172C73.6136 18.7129 73.862 18.8701 74.0671 19.0889C74.2767 19.3076 74.4362 19.5924 74.5456 19.9434C74.655 20.2897 74.7097 20.7158 74.7097 21.2217V26H73.0554V21.2148C73.0554 20.8594 73.003 20.5791 72.8981 20.374C72.7979 20.1644 72.6498 20.0163 72.4538 19.9297C72.2624 19.8385 72.0231 19.793 71.736 19.793C71.4535 19.793 71.2006 19.8522 70.9772 19.9707C70.7539 20.0892 70.5648 20.251 70.4099 20.4561C70.2595 20.6611 70.1433 20.8981 70.0612 21.167C69.9792 21.4359 69.9382 21.723 69.9382 22.0283ZM82.1413 18.6035V26H80.487V18.6035H82.1413ZM80.3776 16.6621C80.3776 16.4115 80.4597 16.2041 80.6237 16.04C80.7924 15.8714 81.0248 15.7871 81.321 15.7871C81.6127 15.7871 81.8428 15.8714 82.0114 16.04C82.18 16.2041 82.2644 16.4115 82.2644 16.6621C82.2644 16.9082 82.18 17.1133 82.0114 17.2773C81.8428 17.4414 81.6127 17.5234 81.321 17.5234C81.0248 17.5234 80.7924 17.4414 80.6237 17.2773C80.4597 17.1133 80.3776 16.9082 80.3776 16.6621ZM85.8298 20.1826V26H84.1823V18.6035H85.7341L85.8298 20.1826ZM85.5358 22.0283L85.0026 22.0215C85.0072 21.4974 85.0801 21.0166 85.2214 20.5791C85.3672 20.1416 85.5677 19.7656 85.823 19.4512C86.0827 19.1367 86.3926 18.8952 86.7526 18.7266C87.1127 18.5534 87.5137 18.4668 87.9558 18.4668C88.3112 18.4668 88.6325 18.5169 88.9196 18.6172C89.2113 18.7129 89.4597 18.8701 89.6647 19.0889C89.8744 19.3076 90.0339 19.5924 90.1433 19.9434C90.2526 20.2897 90.3073 20.7158 90.3073 21.2217V26H88.653V21.2148C88.653 20.8594 88.6006 20.5791 88.4958 20.374C88.3955 20.1644 88.2474 20.0163 88.0515 19.9297C87.8601 19.8385 87.6208 19.793 87.3337 19.793C87.0511 19.793 86.7982 19.8522 86.5749 19.9707C86.3516 20.0892 86.1625 20.251 86.0075 20.4561C85.8571 20.6611 85.7409 20.8981 85.6589 21.167C85.5769 21.4359 85.5358 21.723 85.5358 22.0283ZM97.9851 24.3594L99.694 18.6035H100.747L100.46 20.3262L98.737 26H97.7937L97.9851 24.3594ZM96.9802 18.6035L98.3132 24.3867L98.4226 26H97.3698L95.3669 18.6035H96.9802ZM102.346 24.3184L103.638 18.6035H105.245L103.249 26H102.196L102.346 24.3184ZM100.925 18.6035L102.613 24.291L102.825 26H101.882L100.138 20.3193L99.8513 18.6035H100.925ZM108.38 18.6035V26H106.725V18.6035H108.38ZM106.616 16.6621C106.616 16.4115 106.698 16.2041 106.862 16.04C107.031 15.8714 107.263 15.7871 107.559 15.7871C107.851 15.7871 108.081 15.8714 108.25 16.04C108.418 16.2041 108.503 16.4115 108.503 16.6621C108.503 16.9082 108.418 17.1133 108.25 17.2773C108.081 17.4414 107.851 17.5234 107.559 17.5234C107.263 17.5234 107.031 17.4414 106.862 17.2773C106.698 17.1133 106.616 16.9082 106.616 16.6621ZM113.825 18.6035V19.8066H109.655V18.6035H113.825ZM110.858 16.792H112.506V23.9561C112.506 24.1839 112.537 24.3594 112.601 24.4824C112.67 24.6009 112.763 24.6807 112.882 24.7217C113 24.7627 113.139 24.7832 113.299 24.7832C113.412 24.7832 113.522 24.7764 113.627 24.7627C113.731 24.749 113.816 24.7354 113.88 24.7217L113.886 25.9795C113.75 26.0205 113.59 26.057 113.408 26.0889C113.23 26.1208 113.025 26.1367 112.793 26.1367C112.414 26.1367 112.079 26.0706 111.788 25.9385C111.496 25.8018 111.268 25.5807 111.104 25.2754C110.94 24.9701 110.858 24.5645 110.858 24.0586V16.792ZM116.973 15.5V26H115.333V15.5H116.973ZM116.686 22.0283L116.153 22.0215C116.158 21.5111 116.228 21.0394 116.365 20.6064C116.506 20.1735 116.702 19.7975 116.953 19.4785C117.208 19.1549 117.513 18.9066 117.869 18.7334C118.224 18.5557 118.619 18.4668 119.051 18.4668C119.416 18.4668 119.744 18.5169 120.036 18.6172C120.332 18.7174 120.587 18.8792 120.801 19.1025C121.016 19.3213 121.177 19.6084 121.287 19.9639C121.401 20.3148 121.458 20.7432 121.458 21.249V26H119.803V21.2354C119.803 20.8799 119.751 20.5973 119.646 20.3877C119.546 20.1781 119.398 20.0277 119.202 19.9365C119.006 19.8408 118.767 19.793 118.484 19.793C118.188 19.793 117.926 19.8522 117.698 19.9707C117.475 20.0892 117.288 20.251 117.137 20.4561C116.987 20.6611 116.873 20.8981 116.796 21.167C116.723 21.4359 116.686 21.723 116.686 22.0283ZM134.919 20.9141V24.7148C134.777 24.9017 134.556 25.1068 134.256 25.3301C133.959 25.5488 133.565 25.738 133.073 25.8975C132.581 26.057 131.968 26.1367 131.234 26.1367C130.61 26.1367 130.038 26.0319 129.518 25.8223C128.999 25.6081 128.55 25.2959 128.172 24.8857C127.798 24.4756 127.508 23.9766 127.303 23.3887C127.098 22.7962 126.996 22.1217 126.996 21.3652V20.6748C126.996 19.9229 127.089 19.2529 127.276 18.665C127.467 18.0726 127.741 17.5713 128.096 17.1611C128.452 16.751 128.88 16.4411 129.382 16.2314C129.887 16.0173 130.459 15.9102 131.097 15.9102C131.913 15.9102 132.588 16.0469 133.121 16.3203C133.659 16.5892 134.073 16.9629 134.365 17.4414C134.657 17.9199 134.841 18.4668 134.919 19.082H133.237C133.182 18.7357 133.075 18.4258 132.916 18.1523C132.761 17.8789 132.537 17.6647 132.246 17.5098C131.959 17.3503 131.585 17.2705 131.125 17.2705C130.728 17.2705 130.38 17.3457 130.079 17.4961C129.778 17.6465 129.527 17.8675 129.327 18.1592C129.131 18.4508 128.983 18.8063 128.883 19.2256C128.782 19.6449 128.732 20.1234 128.732 20.6611V21.3652C128.732 21.9121 128.789 22.3975 128.903 22.8213C129.022 23.2451 129.19 23.6029 129.409 23.8945C129.632 24.1862 129.903 24.4072 130.222 24.5576C130.541 24.7035 130.901 24.7764 131.302 24.7764C131.694 24.7764 132.016 24.7445 132.266 24.6807C132.517 24.6123 132.715 24.5326 132.861 24.4414C133.011 24.3457 133.128 24.2546 133.21 24.168V22.1924H131.138V20.9141H134.919ZM136.591 22.3838V22.2266C136.591 21.6934 136.668 21.1989 136.823 20.7432C136.978 20.2829 137.201 19.8841 137.493 19.5469C137.789 19.2051 138.149 18.9408 138.573 18.7539C139.001 18.5625 139.484 18.4668 140.022 18.4668C140.564 18.4668 141.048 18.5625 141.471 18.7539C141.9 18.9408 142.262 19.2051 142.558 19.5469C142.855 19.8841 143.08 20.2829 143.235 20.7432C143.39 21.1989 143.467 21.6934 143.467 22.2266V22.3838C143.467 22.917 143.39 23.4115 143.235 23.8672C143.08 24.3229 142.855 24.7217 142.558 25.0635C142.262 25.4007 141.902 25.665 141.478 25.8564C141.054 26.0433 140.574 26.1367 140.036 26.1367C139.494 26.1367 139.008 26.0433 138.58 25.8564C138.156 25.665 137.796 25.4007 137.5 25.0635C137.203 24.7217 136.978 24.3229 136.823 23.8672C136.668 23.4115 136.591 22.917 136.591 22.3838ZM138.238 22.2266V22.3838C138.238 22.7165 138.272 23.0309 138.341 23.3271C138.409 23.6234 138.516 23.8831 138.662 24.1064C138.808 24.3298 138.995 24.5052 139.222 24.6328C139.45 24.7604 139.721 24.8242 140.036 24.8242C140.341 24.8242 140.606 24.7604 140.829 24.6328C141.057 24.5052 141.244 24.3298 141.389 24.1064C141.535 23.8831 141.642 23.6234 141.711 23.3271C141.784 23.0309 141.82 22.7165 141.82 22.3838V22.2266C141.82 21.8984 141.784 21.5885 141.711 21.2969C141.642 21.0007 141.533 20.7386 141.383 20.5107C141.237 20.2829 141.05 20.1051 140.822 19.9775C140.599 19.8454 140.332 19.7793 140.022 19.7793C139.712 19.7793 139.443 19.8454 139.216 19.9775C138.992 20.1051 138.808 20.2829 138.662 20.5107C138.516 20.7386 138.409 21.0007 138.341 21.2969C138.272 21.5885 138.238 21.8984 138.238 22.2266ZM144.784 22.3838V22.2266C144.784 21.6934 144.861 21.1989 145.016 20.7432C145.171 20.2829 145.395 19.8841 145.686 19.5469C145.982 19.2051 146.342 18.9408 146.766 18.7539C147.195 18.5625 147.678 18.4668 148.216 18.4668C148.758 18.4668 149.241 18.5625 149.665 18.7539C150.093 18.9408 150.455 19.2051 150.752 19.5469C151.048 19.8841 151.273 20.2829 151.428 20.7432C151.583 21.1989 151.661 21.6934 151.661 22.2266V22.3838C151.661 22.917 151.583 23.4115 151.428 23.8672C151.273 24.3229 151.048 24.7217 150.752 25.0635C150.455 25.4007 150.095 25.665 149.672 25.8564C149.248 26.0433 148.767 26.1367 148.229 26.1367C147.687 26.1367 147.202 26.0433 146.773 25.8564C146.349 25.665 145.989 25.4007 145.693 25.0635C145.397 24.7217 145.171 24.3229 145.016 23.8672C144.861 23.4115 144.784 22.917 144.784 22.3838ZM146.431 22.2266V22.3838C146.431 22.7165 146.466 23.0309 146.534 23.3271C146.602 23.6234 146.709 23.8831 146.855 24.1064C147.001 24.3298 147.188 24.5052 147.416 24.6328C147.644 24.7604 147.915 24.8242 148.229 24.8242C148.535 24.8242 148.799 24.7604 149.022 24.6328C149.25 24.5052 149.437 24.3298 149.583 24.1064C149.729 23.8831 149.836 23.6234 149.904 23.3271C149.977 23.0309 150.013 22.7165 150.013 22.3838V22.2266C150.013 21.8984 149.977 21.5885 149.904 21.2969C149.836 21.0007 149.726 20.7386 149.576 20.5107C149.43 20.2829 149.243 20.1051 149.015 19.9775C148.792 19.8454 148.525 19.7793 148.216 19.7793C147.906 19.7793 147.637 19.8454 147.409 19.9775C147.186 20.1051 147.001 20.2829 146.855 20.5107C146.709 20.7386 146.602 21.0007 146.534 21.2969C146.466 21.5885 146.431 21.8984 146.431 22.2266ZM158.029 18.6035H159.526V25.7949C159.526 26.4603 159.385 27.0254 159.102 27.4902C158.82 27.9551 158.425 28.3083 157.92 28.5498C157.414 28.7959 156.828 28.9189 156.163 28.9189C155.88 28.9189 155.566 28.8779 155.219 28.7959C154.878 28.7139 154.545 28.5817 154.221 28.3994C153.902 28.2217 153.636 27.987 153.422 27.6953L154.194 26.7246C154.458 27.0391 154.75 27.2692 155.069 27.415C155.388 27.5609 155.723 27.6338 156.074 27.6338C156.452 27.6338 156.773 27.5632 157.038 27.4219C157.307 27.2852 157.514 27.0824 157.66 26.8135C157.806 26.5446 157.879 26.2165 157.879 25.8291V20.2783L158.029 18.6035ZM153.005 22.3838V22.2402C153.005 21.6797 153.073 21.1693 153.21 20.709C153.346 20.2441 153.542 19.8454 153.798 19.5127C154.053 19.1755 154.363 18.918 154.727 18.7402C155.092 18.5579 155.504 18.4668 155.965 18.4668C156.443 18.4668 156.851 18.5534 157.188 18.7266C157.53 18.8997 157.815 19.1481 158.043 19.4717C158.271 19.7907 158.448 20.1735 158.576 20.6201C158.708 21.0622 158.806 21.5544 158.87 22.0967V22.5547C158.811 23.0833 158.71 23.5664 158.569 24.0039C158.428 24.4414 158.241 24.8197 158.008 25.1387C157.776 25.4577 157.489 25.7038 157.147 25.877C156.81 26.0501 156.411 26.1367 155.951 26.1367C155.5 26.1367 155.092 26.0433 154.727 25.8564C154.367 25.6696 154.057 25.4076 153.798 25.0703C153.542 24.7331 153.346 24.3366 153.21 23.8809C153.073 23.4206 153.005 22.9215 153.005 22.3838ZM154.652 22.2402V22.3838C154.652 22.721 154.684 23.0355 154.748 23.3271C154.816 23.6188 154.919 23.8763 155.055 24.0996C155.197 24.3184 155.374 24.4915 155.589 24.6191C155.807 24.7422 156.065 24.8037 156.361 24.8037C156.748 24.8037 157.065 24.7217 157.311 24.5576C157.562 24.3936 157.753 24.1725 157.885 23.8945C158.022 23.612 158.118 23.2975 158.173 22.9512V21.7139C158.145 21.445 158.088 21.1943 158.002 20.9619C157.92 20.7295 157.808 20.5267 157.667 20.3535C157.525 20.1758 157.348 20.0391 157.133 19.9434C156.919 19.8431 156.666 19.793 156.375 19.793C156.078 19.793 155.821 19.8568 155.602 19.9844C155.383 20.112 155.203 20.2874 155.062 20.5107C154.925 20.734 154.823 20.9938 154.755 21.29C154.686 21.5863 154.652 21.903 154.652 22.2402ZM163.249 15.5V26H161.594V15.5H163.249ZM168.564 26.1367C168.017 26.1367 167.523 26.0479 167.081 25.8701C166.643 25.6878 166.27 25.4349 165.96 25.1113C165.654 24.7878 165.42 24.4072 165.256 23.9697C165.092 23.5322 165.009 23.0605 165.009 22.5547V22.2812C165.009 21.7025 165.094 21.1784 165.262 20.709C165.431 20.2396 165.666 19.8385 165.967 19.5059C166.267 19.1686 166.623 18.9111 167.033 18.7334C167.443 18.5557 167.887 18.4668 168.366 18.4668C168.895 18.4668 169.357 18.5557 169.754 18.7334C170.15 18.9111 170.478 19.1618 170.738 19.4854C171.002 19.8044 171.198 20.1849 171.326 20.627C171.458 21.069 171.524 21.5566 171.524 22.0898V22.7939H165.809V21.6113H169.897V21.4814C169.888 21.1852 169.829 20.9072 169.719 20.6475C169.615 20.3877 169.453 20.1781 169.234 20.0186C169.015 19.859 168.724 19.7793 168.359 19.7793C168.086 19.7793 167.842 19.8385 167.628 19.957C167.418 20.071 167.243 20.2373 167.101 20.4561C166.96 20.6748 166.851 20.9391 166.773 21.249C166.7 21.5544 166.664 21.8984 166.664 22.2812V22.5547C166.664 22.8783 166.707 23.179 166.794 23.457C166.885 23.7305 167.017 23.9697 167.19 24.1748C167.363 24.3799 167.573 24.5417 167.819 24.6602C168.065 24.7741 168.345 24.8311 168.66 24.8311C169.056 24.8311 169.41 24.7513 169.719 24.5918C170.029 24.4323 170.298 24.2067 170.526 23.915L171.394 24.7559C171.235 24.9883 171.027 25.2116 170.772 25.4258C170.517 25.6354 170.205 25.8063 169.836 25.9385C169.471 26.0706 169.047 26.1367 168.564 26.1367Z" fill="#3C4043"/>
<path fill-rule="evenodd" clip-rule="evenodd" d="M38.6 20.2273C38.6 19.5182 38.5364 18.8364 38.4182 18.1818H29V22.05H34.3818C34.15 23.3 33.4455 24.3591 32.3864 25.0682V27.5773H35.6182C37.5091 25.8364 38.6 23.2727 38.6 20.2273Z" fill="#4285F4"/>
<path fill-rule="evenodd" clip-rule="evenodd" d="M29 30C31.7 30 33.9636 29.1045 35.6182 27.5772L32.3864 25.0681C31.4909 25.6681 30.3455 26.0227 29 26.0227C26.3955 26.0227 24.1909 24.2636 23.4045 21.9H20.0636V24.4909C21.7091 27.7591 25.0909 30 29 30Z" fill="#34A853"/>
<path fill-rule="evenodd" clip-rule="evenodd" d="M23.4045 21.8999C23.2045 21.2999 23.0909 20.659 23.0909 19.9999C23.0909 19.3409 23.2045 18.6999 23.4045 18.0999V15.509H20.0636C19.3864 16.859 19 18.3863 19 19.9999C19 21.6136 19.3864 23.1409 20.0636 24.4909L23.4045 21.8999Z" fill="#FBBC05"/>
<path fill-rule="evenodd" clip-rule="evenodd" d="M29 13.9773C30.4682 13.9773 31.7864 14.4818 32.8227 15.4727L35.6909 12.6045C33.9591 10.9909 31.6955 10 29 10C25.0909 10 21.7091 12.2409 20.0636 15.5091L23.4045 18.1C24.1909 15.7364 26.3955 13.9773 29 13.9773Z" fill="#EA4335"/>
</svg>
