<svg width="43" height="41" viewBox="0 0 43 41" fill="none" xmlns="http://www.w3.org/2000/svg">
<path d="M25.7452 17.1037C24.0925 17.1037 22.581 17.2554 21.2186 17.5522L17.0958 14.8079C15.48 13.7323 13.2789 14.8538 13.2848 16.7496L13.3063 23.6697C12.789 24.9829 12.5234 26.4803 12.5234 28.1504C12.5234 35.2203 17.2833 39.1971 25.7452 39.1971C34.2071 39.1971 38.9669 35.2203 38.9669 28.1504C38.9669 26.4801 38.7013 24.9825 38.1839 23.6691L38.2053 16.7496C38.2112 14.8538 36.0102 13.7323 34.3943 14.8079L30.2716 17.5522C28.9093 17.2554 27.3978 17.1037 25.7452 17.1037Z" fill="#608EE9"/>
<path d="M27.189 30.279L25.7456 31.6589L24.3022 30.279C23.6509 29.6564 23.738 29.0917 24.6377 29.0436C25.3275 29.0067 26.1637 29.0067 26.8535 29.0436C27.7531 29.0917 27.8402 29.6564 27.189 30.279Z" fill="#608EE9" stroke="#020202" stroke-width="2.475" stroke-linejoin="round"/>
<path d="M19.7116 38.3416C21.4379 38.9061 23.4561 39.1972 25.7453 39.1972C28.0344 39.1972 30.0527 38.9061 31.779 38.3416" stroke="#020202" stroke-width="2.475" stroke-linecap="round" stroke-linejoin="round"/>
<path d="M13.3065 23.6697L13.285 16.7496C13.2791 14.8538 15.4801 13.7323 17.096 14.8079L21.2188 17.5522C22.5812 17.2554 24.0927 17.1037 25.7454 17.1037C27.398 17.1037 28.9094 17.2554 30.2718 17.5522L34.3945 14.8079C36.0104 13.7323 38.2114 14.8538 38.2055 16.7496L38.1841 23.6691" stroke="#020202" stroke-width="2.475" stroke-linecap="round" stroke-linejoin="round"/>
<path d="M10.634 29.016H17.0828" stroke="#020202" stroke-width="2.475" stroke-linecap="round" stroke-linejoin="round"/>
<path d="M13 36.6257L18.3847 33.1973" stroke="#020202" stroke-width="2.475" stroke-linecap="round" stroke-linejoin="round"/>
<path d="M40.8571 29.016H34.4084" stroke="#020202" stroke-width="2.475" stroke-linecap="round" stroke-linejoin="round"/>
<path d="M38.9675 36.8973L33.5829 33.4689" stroke="#020202" stroke-width="2.475" stroke-linecap="round" stroke-linejoin="round"/>
<path d="M19.8753 4.12622V4.12622C17.882 1.95634 14.4765 1.77927 12.2689 3.73073L3.99719 11.0426C1.78958 12.9941 1.61587 16.3351 3.60919 18.505V18.505" stroke="#020202" stroke-width="2.475" stroke-linecap="round" stroke-linejoin="round"/>
<path d="M11.8134 11.3931L8.1196 7.41193" stroke="#020202" stroke-width="2.475" stroke-linecap="round" stroke-linejoin="round"/>
<path d="M6.35773 16.2156L3.29641 12.8831" stroke="#020202" stroke-width="2.475" stroke-linecap="round" stroke-linejoin="round"/>
<path d="M9.07547 13.8132L5.40189 9.81427" stroke="#020202" stroke-width="2.475" stroke-linecap="round" stroke-linejoin="round"/>
<path d="M14.511 9.00842L10.8374 5.00946" stroke="#020202" stroke-width="2.475" stroke-linecap="round" stroke-linejoin="round"/>
<path d="M17.2287 6.60596L14.1674 3.27349" stroke="#020202" stroke-width="2.475" stroke-linecap="round" stroke-linejoin="round"/>
</svg>
