<svg width="38" height="38" viewBox="0 0 38 38" fill="none" xmlns="http://www.w3.org/2000/svg">
<path d="M2.8654 30.5508C3.13185 32.9266 5.02434 34.8177 7.39917 35.0921C11.1374 35.524 15.0188 36 19 36C22.9812 36 26.8626 35.524 30.6008 35.0921C32.9757 34.8177 34.8681 32.9266 35.1346 30.5508C35.5521 26.8285 36 22.9639 36 19C36 15.0361 35.5521 11.1715 35.1346 7.44919C34.8681 5.07345 32.9757 3.18233 30.6008 2.90792C26.8626 2.47597 22.9812 2 19 2C15.0188 2 11.1374 2.47597 7.39917 2.90792C5.02434 3.18233 3.13185 5.07344 2.8654 7.44918C2.44793 11.1715 2 15.0361 2 19C2 22.9639 2.44793 26.8285 2.8654 30.5508Z" fill="#5BC0BE"/>
<path d="M2.8654 30.5508C3.13185 32.9266 5.02434 34.8177 7.39917 35.0921C11.1374 35.524 15.0188 36 19 36C22.9812 36 26.8626 35.524 30.6008 35.0921C32.9757 34.8177 34.8681 32.9266 35.1346 30.5508C35.5521 26.8285 36 22.9639 36 19C36 15.0361 35.5521 11.1715 35.1346 7.44919C34.8681 5.07345 32.9757 3.18233 30.6008 2.90792C26.8626 2.47597 22.9812 2 19 2C15.0188 2 11.1374 2.47597 7.39917 2.90792C5.02434 3.18233 3.13185 5.07344 2.8654 7.44918C2.44793 11.1715 2 15.0361 2 19C2 22.9639 2.44793 26.8285 2.8654 30.5508Z" stroke="#020202" stroke-width="2.475"/>
<path d="M19.0023 21.155C19.0023 20.1427 19.945 19.5217 21.608 18.5511C23.1505 17.6508 23.9642 16.483 23.6023 14.8937C23.2403 13.3043 21.7369 11.9911 19.9173 11.675C17.0611 11.1787 14.3124 13.1491 14.3124 15.6928" stroke="#020202" stroke-width="2.475" stroke-linecap="round" stroke-linejoin="round"/>
<path d="M19.1336 26.5279C18.9474 26.5279 18.7965 26.3769 18.7965 26.1908C18.7965 26.0046 18.9474 25.8536 19.1336 25.8536" stroke="#020202" stroke-width="2.475"/>
<path d="M19.1336 26.5279C19.3198 26.5279 19.4707 26.3769 19.4707 26.1908C19.4707 26.0046 19.3198 25.8536 19.1336 25.8536" stroke="#020202" stroke-width="2.475"/>
</svg>
