<svg width="37" height="28" viewBox="0 0 37 28" fill="none" xmlns="http://www.w3.org/2000/svg">
<path d="M2 16.5466L17.3698 2.09793C18.005 1.50086 18.995 1.50086 19.6301 2.09793L35 16.5466" stroke="#020202" stroke-width="2.475" stroke-linecap="round" stroke-linejoin="round"/>
<path d="M7.07692 11.7851L17.3672 2.06949C18.0031 1.46915 18.9969 1.46915 19.6327 2.06949L29.9231 11.7851L30.3965 14.5223C30.9227 17.5646 30.897 20.6768 30.3207 23.71C30.09 24.924 29.0288 25.8025 27.7932 25.8025H9.20682C7.97114 25.8025 6.90999 24.924 6.67931 23.71C6.10294 20.6768 6.07725 17.5646 6.60347 14.5223L7.07692 11.7851Z" fill="#608EE9"/>
<path d="M7.07692 11.7851L17.3672 2.06949C18.0031 1.46915 18.9969 1.46915 19.6327 2.06949L29.9231 11.7851L30.3965 14.5223C30.9227 17.5646 30.897 20.6768 30.3207 23.71C30.09 24.924 29.0288 25.8025 27.7932 25.8025H9.20682C7.97114 25.8025 6.90999 24.924 6.67931 23.71C6.10294 20.6768 6.07725 17.5646 6.60347 14.5223L7.07692 11.7851Z" stroke="#020202" stroke-width="2.475" stroke-linejoin="round"/>
<path d="M18.5 15.7311C20.9314 15.7311 22.9025 17.3284 22.9025 19.2989V25.8026H14.0975V19.2989C14.0975 17.3284 16.0686 15.7311 18.5 15.7311Z" fill="white" stroke="#020202" stroke-width="2.475" stroke-linecap="round" stroke-linejoin="round"/>
</svg>
