<svg width="34" height="34" viewBox="0 0 34 34" fill="none" xmlns="http://www.w3.org/2000/svg">
<path d="M6.26721 6.26709L7.16162 7.1615" stroke="#020202" stroke-width="2.475" stroke-linecap="round" stroke-linejoin="round"/>
<path d="M17.0001 1.82141L17.0001 3.08629" stroke="#020202" stroke-width="2.475" stroke-linecap="round" stroke-linejoin="round"/>
<path d="M32.1786 17L30.9138 17" stroke="#020202" stroke-width="2.475" stroke-linecap="round" stroke-linejoin="round"/>
<path d="M3.08636 17L1.82148 17" stroke="#020202" stroke-width="2.475" stroke-linecap="round" stroke-linejoin="round"/>
<path d="M27.7329 6.26709L26.8385 7.1615" stroke="#020202" stroke-width="2.475" stroke-linecap="round" stroke-linejoin="round"/>
<path d="M25.129 17.5581C25.139 16.107 24.7604 14.6798 24.0326 13.4245C23.3048 12.1691 22.2542 11.1315 20.9899 10.4193C19.7257 9.70711 18.2938 9.34629 16.843 9.37432C15.3922 9.40235 13.9754 9.81819 12.7396 10.5787C11.5038 11.3392 10.4941 12.4166 9.81525 13.6991C9.13644 14.9816 8.81328 16.4224 8.87934 17.872C8.94539 19.3215 9.39825 20.727 10.1909 21.9424C11.6063 24.1129 12.4443 24.9107 12.4443 27.4937C12.4443 27.7332 12.5395 27.963 12.7089 28.1323C12.8782 28.3017 13.108 28.3969 13.3475 28.3969H20.6521C20.8917 28.3969 21.1214 28.3017 21.2908 28.1323C21.4602 27.963 21.5554 27.7332 21.5554 27.4937C21.5554 24.8485 22.4928 24.0632 23.8989 21.8135C24.6967 20.537 25.1227 19.0633 25.129 17.5581Z" fill="#FFD600" stroke="#020202" stroke-width="2.475" stroke-linecap="round" stroke-linejoin="round"/>
<path d="M13.7545 28.397H20.2457V30.7544C20.2457 32.5469 18.7926 34 17.0001 34C15.2076 34 13.7545 32.5469 13.7545 30.7544V28.397Z" fill="#020202"/>
</svg>
