<svg width="57" height="57" viewBox="0 0 57 57" fill="none" xmlns="http://www.w3.org/2000/svg">
<path d="M3.54325 51.7866C3.8228 53.2246 5.05204 54.2705 6.51268 54.3825C13.646 54.9291 21.1452 55.7607 28.8828 55.7607C36.6591 55.7607 44.1353 55.2415 51.3422 54.4699C52.7601 54.3181 53.9159 53.2623 54.177 51.8604C55.119 46.8015 55.7655 41.5457 55.7655 36.0971C55.7655 30.6357 55.1808 25.3021 54.1961 20.2718C53.9274 18.8996 52.7897 17.8743 51.4 17.7203C44.1422 16.9162 36.6841 16.4336 28.8828 16.4336C21.0776 16.4336 13.4807 16.8864 6.31601 17.7128C4.95051 17.8702 3.83141 18.8729 3.55787 20.22C2.53601 25.2523 2 30.6195 2 36.0971C2 41.5205 2.563 46.7444 3.54325 51.7866Z" fill="#5BC0BE" stroke="#020202" stroke-width="2.475" stroke-linejoin="round"/>
<path d="M18.5431 55.3451V16.7904" stroke="#020202" stroke-width="2.475" stroke-linecap="round" stroke-linejoin="round"/>
<path d="M39.2224 55.4459V16.7904" stroke="#020202" stroke-width="2.475" stroke-linecap="round" stroke-linejoin="round"/>
<path d="M41 17V14.5132C41 11.1945 39.7357 8.0117 37.4853 5.66502C35.2348 3.31835 32.1826 2 29 2C25.8174 2 22.7652 3.31835 20.5147 5.66502C18.2643 8.0117 17 11.1945 17 14.5132V17" stroke="#020202" stroke-width="2.475" stroke-linecap="round" stroke-linejoin="round"/>
</svg>
