<svg width="70" height="52" viewBox="0 0 70 52" fill="none" xmlns="http://www.w3.org/2000/svg">
<path d="M2 32.0933L33.8699 2.13349C34.505 1.53641 35.495 1.53641 36.1301 2.13349L68 32.0933" stroke="#020202" stroke-width="2.475" stroke-linecap="round" stroke-linejoin="round"/>
<path d="M12.1538 22.5703L33.8672 2.06949C34.5031 1.46915 35.4969 1.46915 36.1327 2.06949L57.8461 22.5703L59.3639 31.3449C60.0388 35.2472 60.0059 39.2391 59.2666 43.1298L58.3561 47.921C58.0603 49.4782 56.6991 50.605 55.1142 50.605H14.8858C13.3008 50.605 11.9397 49.4782 11.6438 47.921L10.7334 43.1298C9.99406 39.2391 9.96111 35.2472 10.6361 31.3449L12.1538 22.5703Z" fill="#5BC0BE"/>
<path d="M12.1538 22.5703L33.8672 2.06949C34.5031 1.46915 35.4969 1.46915 36.1327 2.06949L57.8461 22.5703L59.3639 31.3449C60.0388 35.2472 60.0059 39.2391 59.2666 43.1298L58.3561 47.921C58.0603 49.4782 56.6991 50.605 55.1142 50.605H14.8858C13.3008 50.605 11.9397 49.4782 11.6438 47.921L10.7334 43.1298C9.99406 39.2391 9.96111 35.2472 10.6361 31.3449L12.1538 22.5703Z" stroke="#020202" stroke-width="2.475" stroke-linejoin="round"/>
<path d="M35 30.4623C39.8628 30.4623 43.805 33.657 43.805 37.5979V50.6054H26.195V37.5979C26.195 33.657 30.1371 30.4623 35 30.4623Z" fill="white" stroke="#020202" stroke-width="2.475" stroke-linecap="round" stroke-linejoin="round"/>
</svg>
