<svg width="30" height="30" viewBox="0 0 30 30" fill="none" xmlns="http://www.w3.org/2000/svg">
<path d="M2.52163 25.0387C2.75772 26.4844 3.99464 27.5311 5.45453 27.6523C8.52009 27.9068 11.7162 28.2168 15.0011 28.2168C18.3223 28.2168 21.5303 28.021 24.6354 27.7182C26.0546 27.5798 27.2171 26.5222 27.4466 25.1148C27.784 23.0447 28.0023 20.9084 28.0023 18.707C28.0023 16.4908 27.8032 14.318 27.4578 12.239C27.2286 10.8596 26.0843 9.83222 24.6929 9.69335C21.5607 9.38071 18.3462 9.19727 15.0011 9.19727C11.6495 9.19727 8.37718 9.3699 5.26014 9.68838C3.8927 9.82809 2.76696 10.833 2.53779 12.1883C2.1841 14.28 2 16.4745 2 18.707C2 20.8823 2.18728 22.9912 2.52163 25.0387Z" fill="#608EE9" stroke="#020202" stroke-width="2.475" stroke-linejoin="round"/>
<path d="M10.0006 28.0158V9.36987" stroke="#020202" stroke-width="2.475" stroke-linecap="round" stroke-linejoin="round"/>
<path d="M20.0016 28.0646V9.36987" stroke="#020202" stroke-width="2.475" stroke-linecap="round" stroke-linejoin="round"/>
<path d="M21 9.19727V8.03675C21 6.48802 20.3679 5.00272 19.2426 3.90761C18.1174 2.81249 16.5913 2.19727 15 2.19727C13.4087 2.19727 11.8826 2.81249 10.7574 3.90761C9.63214 5.00272 9 6.48802 9 8.03675V9.19727" stroke="#020202" stroke-width="2.475" stroke-linecap="round" stroke-linejoin="round"/>
</svg>
