<svg width="70" height="57" viewBox="0 0 70 57" fill="none" xmlns="http://www.w3.org/2000/svg">
<path d="M46.0409 16.2356C49.279 16.2356 51.904 13.0489 51.904 9.1178C51.904 5.18675 49.279 2 46.0409 2C42.8028 2 40.1778 5.18675 40.1778 9.1178C40.1778 13.0489 42.8028 16.2356 46.0409 16.2356Z" fill="#5BC0BE" stroke="#020202" stroke-width="2.475" stroke-linecap="round" stroke-linejoin="round"/>
<path d="M24.0452 16.2356C27.2833 16.2356 29.9083 13.0489 29.9083 9.1178C29.9083 5.18675 27.2833 2 24.0452 2C20.8071 2 18.1821 5.18675 18.1821 9.1178C18.1821 13.0489 20.8071 16.2356 24.0452 16.2356Z" fill="#5BC0BE" stroke="#020202" stroke-width="2.475" stroke-linecap="round" stroke-linejoin="round"/>
<path d="M61.923 34.307C65.3256 34.307 68.084 31.1202 68.084 27.1892C68.084 23.2581 65.3256 20.0714 61.923 20.0714C58.5204 20.0714 55.762 23.2581 55.762 27.1892C55.762 31.1202 58.5204 34.307 61.923 34.307Z" fill="#5BC0BE" stroke="#020202" stroke-width="2.475" stroke-linecap="round" stroke-linejoin="round"/>
<path d="M8.16102 34.307C11.5637 34.307 14.322 31.1202 14.322 27.1892C14.322 23.2581 11.5637 20.0714 8.16102 20.0714C4.75838 20.0714 2 23.2581 2 27.1892C2 31.1202 4.75838 34.307 8.16102 34.307Z" fill="#5BC0BE" stroke="#020202" stroke-width="2.475" stroke-linecap="round" stroke-linejoin="round"/>
<path d="M50.4425 45.7758C50.4425 52.3242 42.1264 55.2663 35.0424 55.2663C27.9584 55.2663 19.6424 52.3242 19.6424 45.7758C19.6424 39.2275 24.7757 29.1676 35.0424 29.1676C45.3091 29.1676 50.4425 39.2275 50.4425 45.7758Z" fill="#5BC0BE" stroke="#020202" stroke-width="2.475" stroke-linecap="round" stroke-linejoin="round"/>
</svg>
