<svg width="75" height="73" viewBox="0 0 75 73" fill="none" xmlns="http://www.w3.org/2000/svg">
<path d="M45.9994 30.9444C43.0465 30.9444 40.3459 31.2207 37.9117 31.7613L30.5455 26.7628C27.6583 24.8036 23.7257 26.8462 23.7362 30.2994L23.7746 42.9037C22.8504 45.2956 22.3758 48.0231 22.3758 51.0649C22.3758 63.9421 30.8803 71.1855 45.9994 71.1855C61.1185 71.1855 69.623 63.9421 69.623 51.0649C69.623 48.0226 69.1483 45.2948 68.2239 42.9027L68.2623 30.2994C68.2728 26.8462 64.3401 24.8036 61.453 26.7628L54.0869 31.7612C51.6528 31.2206 48.9522 30.9444 45.9994 30.9444Z" fill="#5BC0BE"/>
<path d="M49.4041 54.1381L46.0001 57.4555L42.5962 54.1381C41.9589 53.517 42.006 52.8813 42.8903 52.782C44.5576 52.5947 47.4427 52.5947 49.1099 52.782C49.9943 52.8813 50.0414 53.517 49.4041 54.1381Z" fill="#5BC0BE" stroke="#020202" stroke-width="2.475" stroke-linejoin="round"/>
<path d="M35.2191 69.6273C38.3036 70.6556 41.9096 71.1857 45.9996 71.1857C50.0897 71.1857 53.6957 70.6556 56.7802 69.6273" stroke="#020202" stroke-width="2.475" stroke-linecap="round" stroke-linejoin="round"/>
<path d="M23.7749 42.9037L23.7365 30.2994C23.726 26.8462 27.6586 24.8036 30.5458 26.7628L37.912 31.7613C40.3462 31.2207 43.0468 30.9444 45.9997 30.9444C48.9526 30.9444 51.6531 31.2206 54.0872 31.7612L61.4533 26.7628C64.3404 24.8036 68.2731 26.8462 68.2626 30.2994L68.2242 42.9027" stroke="#020202" stroke-width="2.475" stroke-linecap="round" stroke-linejoin="round"/>
<path d="M19 52.6414H30.5221" stroke="#020202" stroke-width="2.475" stroke-linecap="round" stroke-linejoin="round"/>
<path d="M22.3762 66.9967L31.9971 60.752" stroke="#020202" stroke-width="2.475" stroke-linecap="round" stroke-linejoin="round"/>
<path d="M73.0002 52.6414H61.4781" stroke="#020202" stroke-width="2.475" stroke-linecap="round" stroke-linejoin="round"/>
<path d="M69.6241 66.9967L60.0031 60.752" stroke="#020202" stroke-width="2.475" stroke-linecap="round" stroke-linejoin="round"/>
<path d="M35.5117 7.30688L33.4813 5.05368C31.0412 2.34584 26.8679 2.12881 24.1601 4.56893L4.90298 21.9221C2.19514 24.3623 1.97811 28.5355 4.41824 31.2433L6.44868 33.4966" stroke="#020202" stroke-width="2.475" stroke-linecap="round" stroke-linejoin="round"/>
<path d="M21.1073 20.5427L14.5076 13.2914" stroke="#020202" stroke-width="2.475" stroke-linecap="round" stroke-linejoin="round"/>
<path d="M11.3595 29.3268L5.88981 23.2569" stroke="#020202" stroke-width="2.475" stroke-linecap="round" stroke-linejoin="round"/>
<path d="M16.2154 24.951L9.65171 17.6672" stroke="#020202" stroke-width="2.475" stroke-linecap="round" stroke-linejoin="round"/>
<path d="M25.9271 16.1995L19.3634 8.91568" stroke="#020202" stroke-width="2.475" stroke-linecap="round" stroke-linejoin="round"/>
<path d="M30.783 11.8237L25.3132 5.75385" stroke="#020202" stroke-width="2.475" stroke-linecap="round" stroke-linejoin="round"/>
</svg>
