<svg width="24" height="24" viewBox="0 0 24 24" fill="none" xmlns="http://www.w3.org/2000/svg">
<path d="M12.5029 21.0807C14.6072 19.2573 19.465 14.4717 19.465 9.15266C19.465 4.78126 15.9213 1.23755 11.5499 1.23755C7.17848 1.23755 3.63477 4.78126 3.63477 9.15266C3.63477 14.4717 8.49256 19.2573 10.5968 21.0807C11.1498 21.5599 11.9499 21.5599 12.5029 21.0807Z" fill="#608EE9" stroke="#020202" stroke-width="2.475" stroke-linecap="round" stroke-linejoin="round"/>
<path d="M11.55 11.9298C13.3404 11.9298 14.7919 10.4784 14.7919 8.68793C14.7919 6.89749 13.3404 5.44604 11.55 5.44604C9.75955 5.44604 8.30811 6.89749 8.30811 8.68793C8.30811 10.4784 9.75955 11.9298 11.55 11.9298Z" fill="white" stroke="#020202" stroke-width="2.475" stroke-linecap="round" stroke-linejoin="round"/>
</svg>
