<svg width="49" height="38" viewBox="0 0 49 38" fill="none" xmlns="http://www.w3.org/2000/svg">
<path d="M36.5032 5.29093C34.8916 3.24501 32.6971 2.0887 30.4024 2.07637C28.1078 2.06405 25.901 3.19672 24.2675 5.22522C22.634 7.25371 21.7076 10.0119 21.6921 12.8929L21.6671 17.5485" stroke="#020202" stroke-width="2.475" stroke-linecap="round" stroke-linejoin="round"/>
<path d="M16.5595 31.5016C16.8692 33.8668 18.7969 35.7352 21.1784 35.8705C23.6816 36.0127 26.2072 36.0937 29.0142 36.1088C31.8211 36.1239 34.3474 36.07 36.852 35.9547C39.2348 35.845 41.1824 33.9974 41.5175 31.6357C41.8095 29.5778 42.0751 27.4596 42.0867 25.2955C42.0983 23.1315 41.8555 21.0105 41.5857 18.9497C41.276 16.5845 39.3483 14.7161 36.9668 14.5808C34.4636 14.4386 31.938 14.3576 29.1311 14.3425C26.3241 14.3274 23.7978 14.3813 21.2932 14.4966C18.9104 14.6063 16.9628 16.4539 16.6277 18.8156C16.3357 20.8735 16.0701 22.9917 16.0585 25.1558C16.0469 27.3198 16.2897 29.4408 16.5595 31.5016Z" fill="#5BC0BE"/>
<path d="M16.5595 31.5016C16.8692 33.8668 18.7969 35.7352 21.1784 35.8705C23.6816 36.0127 26.2072 36.0937 29.0142 36.1088C31.8211 36.1239 34.3474 36.07 36.852 35.9547C39.2348 35.845 41.1824 33.9974 41.5175 31.6357C41.8095 29.5778 42.0751 27.4596 42.0867 25.2955C42.0983 23.1315 41.8555 21.0105 41.5857 18.9497C41.276 16.5845 39.3483 14.7161 36.9668 14.5808C34.4636 14.4386 31.938 14.3576 29.1311 14.3425C26.3241 14.3274 23.7978 14.3813 21.2932 14.4966C18.9104 14.6063 16.9628 16.4539 16.6277 18.8156C16.3357 20.8735 16.0701 22.9917 16.0585 25.1558C16.0469 27.3198 16.2897 29.4408 16.5595 31.5016Z" stroke="#020202" stroke-width="2.475"/>
<ellipse cx="29.0726" cy="25.2258" rx="3.12343" ry="3.26499" transform="rotate(0.307708 29.0726 25.2258)" fill="#020202"/>
</svg>
