<svg width="59" height="48" viewBox="0 0 59 48" fill="none" xmlns="http://www.w3.org/2000/svg">
<path d="M27.051 2.03745C24.0285 1.80337 20.9154 1.68115 17.7357 1.68115C14.556 1.68115 11.4428 1.80337 8.42034 2.03746C5.09444 2.29504 2.55009 4.99354 2.39986 8.27929C2.16784 13.354 2.04565 18.622 2.04565 24.0249C2.04565 29.4278 2.16784 34.6958 2.39986 39.7705C2.55009 43.0563 5.09445 45.7548 8.42034 46.0123C11.4428 46.2464 14.556 46.3687 17.7357 46.3687C20.9154 46.3687 24.0285 46.2464 27.051 46.0124C30.3769 45.7548 32.9212 43.0563 33.0715 39.7705C33.1543 37.9599 33.2231 36.1247 33.2773 34.2675V13.7824C33.2231 11.9252 33.1543 10.0899 33.0715 8.27929C32.9212 4.99353 30.3769 2.29503 27.051 2.03745Z" fill="#5BC0BE"/>
<path d="M39.064 24.3483C39.064 26.2282 39.4129 28.9212 39.7524 31.096C40.0649 33.0982 42.0324 34.3811 43.9633 33.7661C48.8259 32.2172 53.3777 29.8297 56.5423 26.2394C57.4986 25.1544 57.4987 23.5421 56.5424 22.457C53.3781 18.8667 48.8261 16.4792 43.9635 14.9304C42.0327 14.3154 40.0653 15.5982 39.7527 17.6003C39.4131 19.7752 39.064 22.4683 39.064 24.3483Z" fill="#5BC0BE"/>
<path d="M39.064 24.3483C39.064 26.2282 39.4129 28.9212 39.7524 31.096C40.0649 33.0982 42.0324 34.3811 43.9633 33.7661C48.8259 32.2172 53.3777 29.8297 56.5423 26.2394C57.4986 25.1544 57.4987 23.5421 56.5424 22.457C53.3781 18.8667 48.8261 16.4792 43.9635 14.9304C42.0327 14.3154 40.0653 15.5982 39.7527 17.6003C39.4131 19.7752 39.064 22.4683 39.064 24.3483Z" stroke="black" stroke-width="3" stroke-linecap="round" stroke-linejoin="round"/>
<path d="M33.0715 8.27929C32.9212 4.99353 30.3769 2.29503 27.051 2.03745C24.0285 1.80337 20.9154 1.68115 17.7357 1.68115C14.556 1.68115 11.4428 1.80337 8.42034 2.03746C5.09444 2.29504 2.55009 4.99354 2.39986 8.27929C2.16784 13.354 2.04565 18.622 2.04565 24.0249C2.04565 29.4278 2.16784 34.6958 2.39986 39.7705C2.55009 43.0563 5.09445 45.7548 8.42034 46.0123C11.4428 46.2464 14.556 46.3687 17.7357 46.3687C20.9154 46.3687 24.0285 46.2464 27.051 46.0124C30.3769 45.7548 32.9212 43.0563 33.0715 39.7705" stroke="black" stroke-width="3" stroke-linecap="round"/>
<path d="M16.1225 24.3484L39.0641 24.3484" stroke="black" stroke-width="3" stroke-linecap="round" stroke-linejoin="round"/>
</svg>
