<svg width="54" height="33" viewBox="0 0 54 33" fill="none" xmlns="http://www.w3.org/2000/svg">
<path d="M2 8.37701H5.1887" stroke="#020202" stroke-width="2.475" stroke-linecap="round" stroke-linejoin="round"/>
<path d="M2 14.7548H5.1887" stroke="#020202" stroke-width="2.475" stroke-linecap="round" stroke-linejoin="round"/>
<path d="M2 8.37701H5.1887" stroke="#020202" stroke-width="2.475" stroke-linecap="round" stroke-linejoin="round"/>
<path d="M2 2H5.1887" stroke="#020202" stroke-width="2.475" stroke-linecap="round" stroke-linejoin="round"/>
<path d="M20.0405 28.2031C20.1752 29.2764 21.0404 30.1161 22.1177 30.2142C26.5079 30.614 31.1157 31.1949 35.8665 31.1949C40.6174 31.1949 45.2252 30.614 49.6153 30.2142C50.6926 30.1161 51.5579 29.2764 51.6926 28.2031C52.1503 24.5578 52.7625 20.7381 52.7625 16.8029C52.7625 12.8676 52.1503 9.04799 51.6926 5.4027C51.5579 4.32938 50.6926 3.48965 49.6153 3.39154C45.2252 2.99171 40.6174 2.41083 35.8665 2.41083C31.1157 2.41083 26.5079 2.99171 22.1177 3.39154C21.0404 3.48965 20.1752 4.32938 20.0405 5.4027C19.5828 9.04799 18.9706 12.8676 18.9706 16.8029C18.9706 20.7381 19.5828 24.5578 20.0405 28.2031Z" fill="#5BC0BE" stroke="#020202" stroke-width="2.475" stroke-linejoin="round"/>
<path d="M19.8071 7.11237L34.526 18.0729C35.3213 18.6652 36.4111 18.6652 37.2065 18.0729L51.9253 7.11237" stroke="#020202" stroke-width="2.475" stroke-linejoin="round"/>
</svg>
