<svg width="39" height="32" viewBox="0 0 39 32" fill="none" xmlns="http://www.w3.org/2000/svg">
<path d="M25.3253 9.73686C27.0403 9.73686 28.4306 8.04906 28.4306 5.96706C28.4306 3.88506 27.0403 2.19727 25.3253 2.19727C23.6103 2.19727 22.2201 3.88506 22.2201 5.96706C22.2201 8.04906 23.6103 9.73686 25.3253 9.73686Z" fill="#608EE9" stroke="#020202" stroke-width="2.475" stroke-linecap="round" stroke-linejoin="round"/>
<path d="M13.6757 9.73686C15.3907 9.73686 16.781 8.04906 16.781 5.96706C16.781 3.88506 15.3907 2.19727 13.6757 2.19727C11.9607 2.19727 10.5704 3.88506 10.5704 5.96706C10.5704 8.04906 11.9607 9.73686 13.6757 9.73686Z" fill="#608EE9" stroke="#020202" stroke-width="2.475" stroke-linecap="round" stroke-linejoin="round"/>
<path d="M33.7369 19.3079C35.5391 19.3079 37 17.6201 37 15.5381C37 13.4561 35.5391 11.7683 33.7369 11.7683C31.9348 11.7683 30.4739 13.4561 30.4739 15.5381C30.4739 17.6201 31.9348 19.3079 33.7369 19.3079Z" fill="#608EE9" stroke="#020202" stroke-width="2.475" stroke-linecap="round" stroke-linejoin="round"/>
<path d="M5.26305 19.3079C7.06519 19.3079 8.52611 17.6201 8.52611 15.5381C8.52611 13.4561 7.06519 11.7683 5.26305 11.7683C3.46092 11.7683 2 13.4561 2 15.5381C2 17.6201 3.46092 19.3079 5.26305 19.3079Z" fill="#608EE9" stroke="#020202" stroke-width="2.475" stroke-linecap="round" stroke-linejoin="round"/>
<path d="M27.6565 25.3822C27.6565 28.8505 23.2521 30.4086 19.5002 30.4086C15.7483 30.4086 11.3439 28.8505 11.3439 25.3822C11.3439 21.914 14.0626 16.5861 19.5002 16.5861C24.9377 16.5861 27.6565 21.914 27.6565 25.3822Z" fill="#608EE9" stroke="#020202" stroke-width="2.475" stroke-linecap="round" stroke-linejoin="round"/>
</svg>
