<svg width="24" height="24" viewBox="0 0 24 24" fill="none" xmlns="http://www.w3.org/2000/svg">
<path d="M11.5502 11.468C13.4817 11.468 15.0474 9.90224 15.0474 7.97076C15.0474 6.03928 13.4817 4.47351 11.5502 4.47351C9.61869 4.47351 8.05292 6.03928 8.05292 7.97076C8.05292 9.90224 9.61869 11.468 11.5502 11.468Z" fill="#608EE9" stroke="#020202" stroke-width="2.475" stroke-linecap="round" stroke-linejoin="round"/>
<path d="M17.2607 16.8687C16.9552 15.6376 16.2592 14.5357 15.2736 13.7301C14.2228 12.8712 12.9073 12.402 11.55 12.402C10.1928 12.402 8.87727 12.8712 7.8264 13.7301C6.84081 14.5357 6.14484 15.6376 5.83936 16.8687C6.13458 16.9672 6.44285 17.0359 6.76052 17.0713C8.31881 17.245 9.9188 17.3942 11.5501 17.3942C13.1813 17.3942 14.7813 17.245 16.3396 17.0713C16.6573 17.0359 16.9655 16.9672 17.2607 16.8687Z" fill="#608EE9" stroke="#020202" stroke-width="2.475" stroke-linecap="round" stroke-linejoin="round"/>
<path d="M16.5112 1.5553C17.1231 1.62121 17.7295 1.69187 18.3299 1.76145C19.913 1.94494 21.1763 3.20735 21.3541 4.79115C21.421 5.38769 21.4886 5.99016 21.5513 6.59808" stroke="#020202" stroke-width="2.475" stroke-linecap="round"/>
<path d="M16.5112 21.5447C17.1231 21.4788 17.7295 21.4081 18.3299 21.3385C19.913 21.155 21.1763 19.8926 21.3541 18.3088C21.421 17.7123 21.4886 17.1098 21.5513 16.5019" stroke="#020202" stroke-width="2.475" stroke-linecap="round"/>
<path d="M6.58881 1.5553C5.97691 1.62121 5.37051 1.69187 4.77011 1.76145C3.18695 1.94494 1.92371 3.20735 1.7459 4.79115C1.67893 5.38769 1.6114 5.99016 1.54864 6.59808" stroke="#020202" stroke-width="2.475" stroke-linecap="round"/>
<path d="M6.58881 21.5447C5.97691 21.4788 5.37051 21.4081 4.77011 21.3385C3.18695 21.155 1.92371 19.8926 1.7459 18.3088C1.67893 17.7123 1.6114 17.1098 1.54864 16.5019" stroke="#020202" stroke-width="2.475" stroke-linecap="round"/>
</svg>
