<svg width="73" height="63" viewBox="0 0 73 63" fill="none" xmlns="http://www.w3.org/2000/svg">
<path d="M54.7504 61.4611C63.4122 61.4611 70.434 54.3666 70.434 45.6151C70.434 36.8635 63.4122 29.769 54.7504 29.769C46.0886 29.769 39.0668 36.8635 39.0668 45.6151C39.0668 54.3666 46.0886 61.4611 54.7504 61.4611Z" fill="#5BC0BE" stroke="#020202" stroke-width="2.475" stroke-linecap="round" stroke-linejoin="round"/>
<path d="M54.7505 45.7143C57.4064 45.7143 59.5594 43.539 59.5594 40.8557C59.5594 38.1723 57.4064 35.997 54.7505 35.997C52.0947 35.997 49.9417 38.1723 49.9417 40.8557C49.9417 43.539 52.0947 45.7143 54.7505 45.7143Z" fill="white" stroke="#020202" stroke-width="2.475" stroke-linecap="round" stroke-linejoin="round"/>
<path d="M64.0458 58.3793C61.4445 60.3163 58.2298 61.4611 54.7504 61.4611C51.271 61.4611 48.0563 60.3163 45.455 58.3793C45.973 56.4082 47.0935 54.6465 48.6638 53.3497C50.3816 51.9311 52.5319 51.1562 54.7504 51.1562C56.9689 51.1562 59.1192 51.9311 60.8369 53.3497C62.4072 54.6465 63.5278 56.4082 64.0458 58.3793Z" fill="white" stroke="#020202" stroke-width="2.475" stroke-linecap="round" stroke-linejoin="round"/>
</svg>
