<svg width="290" height="154" viewBox="0 0 290 154" fill="none" xmlns="http://www.w3.org/2000/svg">
<g filter="url(#filter0_d_209_227)">
<mask id="path-1-inside-1_209_227" fill="white">
<path fill-rule="evenodd" clip-rule="evenodd" d="M235.279 145.693C235.673 146.102 236.327 146.102 236.721 145.693L244.66 137.442H270C278.837 137.442 286 130.279 286 121.442L286 16.4422C286 7.60567 278.837 0.442215 270 0.442215L20 0.442215C11.1635 0.442215 4 7.60567 4 16.4422L4 121.442C4 130.279 11.1635 137.442 20 137.442L227.34 137.442L235.279 145.693Z"/>
</mask>
<path fill-rule="evenodd" clip-rule="evenodd" d="M235.279 145.693C235.673 146.102 236.327 146.102 236.721 145.693L244.66 137.442H270C278.837 137.442 286 130.279 286 121.442L286 16.4422C286 7.60567 278.837 0.442215 270 0.442215L20 0.442215C11.1635 0.442215 4 7.60567 4 16.4422L4 121.442C4 130.279 11.1635 137.442 20 137.442L227.34 137.442L235.279 145.693Z" fill="white"/>
<path d="M236.721 145.693L236 145L236 145L236.721 145.693ZM235.279 145.693L234.559 146.387L234.559 146.387L235.279 145.693ZM244.66 137.442V136.442H244.235L243.94 136.749L244.66 137.442ZM227.34 137.442L228.06 136.749L227.765 136.442H227.34V137.442ZM236 145L236 145L234.559 146.387C235.346 147.204 236.654 147.204 237.441 146.387L236 145ZM243.94 136.749L236 145L237.441 146.387L245.381 138.136L243.94 136.749ZM270 136.442H244.66V138.442H270V136.442ZM285 121.442C285 129.726 278.284 136.442 270 136.442V138.442C279.389 138.442 287 130.831 287 121.442H285ZM285 16.4422L285 121.442H287L287 16.4422H285ZM270 1.44221C278.284 1.44221 285 8.15795 285 16.4422H287C287 7.05338 279.389 -0.557785 270 -0.557785V1.44221ZM20 1.44221L270 1.44221V-0.557785L20 -0.557785V1.44221ZM5 16.4422C5 8.15795 11.7157 1.44221 20 1.44221V-0.557785C10.6112 -0.557785 3 7.05338 3 16.4422H5ZM5 121.442L5 16.4422H3L3 121.442H5ZM20 136.442C11.7157 136.442 5 129.726 5 121.442H3C3 130.831 10.6112 138.442 20 138.442V136.442ZM227.34 136.442L20 136.442V138.442L227.34 138.442V136.442ZM236 145L228.06 136.749L226.619 138.136L234.559 146.387L236 145Z" fill="#F6F6F6" mask="url(#path-1-inside-1_209_227)"/>
</g>
<path d="M38.2727 92L25.5227 45.4545H29.8409L40.3864 85.4773H40.75L51.2955 45.4545H56.2045L66.75 85.4773H67.1136L77.6591 45.4545H82L69.25 92H64.7045L53.9091 52.5227H53.6136L42.8182 92H38.2727ZM98.5191 92.7273C95.5039 92.7273 92.8373 91.9621 90.5191 90.4318C88.2161 88.9015 86.413 86.7879 85.11 84.0909C83.807 81.3788 83.1555 78.25 83.1555 74.7045C83.1555 71.1288 83.807 67.9848 85.11 65.2727C86.413 62.5455 88.2161 60.4242 90.5191 58.9091C92.8373 57.3788 95.5039 56.6136 98.5191 56.6136C101.534 56.6136 104.193 57.3788 106.496 58.9091C108.799 60.4394 110.602 62.5606 111.905 65.2727C113.224 67.9848 113.883 71.1288 113.883 74.7045C113.883 78.25 113.231 81.3788 111.928 84.0909C110.625 86.7879 108.815 88.9015 106.496 90.4318C104.193 91.9621 101.534 92.7273 98.5191 92.7273ZM98.5191 89.0227C100.943 89.0227 102.996 88.3712 104.678 87.0682C106.36 85.7652 107.633 84.0303 108.496 81.8636C109.375 79.697 109.815 77.3106 109.815 74.7045C109.815 72.0985 109.375 69.7045 108.496 67.5227C107.633 65.3409 106.36 63.5909 104.678 62.2727C102.996 60.9545 100.943 60.2955 98.5191 60.2955C96.11 60.2955 94.057 60.9545 92.36 62.2727C90.6782 63.5909 89.3979 65.3409 88.5191 67.5227C87.6555 69.7045 87.2236 72.0985 87.2236 74.7045C87.2236 77.3106 87.6555 79.697 88.5191 81.8636C89.3979 84.0303 90.6782 85.7652 92.36 87.0682C94.0418 88.3712 96.0948 89.0227 98.5191 89.0227ZM135.692 92.7273C132.676 92.7273 130.01 91.9621 127.692 90.4318C125.389 88.9015 123.586 86.7879 122.283 84.0909C120.979 81.3788 120.328 78.25 120.328 74.7045C120.328 71.1288 120.979 67.9848 122.283 65.2727C123.586 62.5455 125.389 60.4242 127.692 58.9091C130.01 57.3788 132.676 56.6136 135.692 56.6136C138.707 56.6136 141.366 57.3788 143.669 58.9091C145.972 60.4394 147.775 62.5606 149.078 65.2727C150.396 67.9848 151.055 71.1288 151.055 74.7045C151.055 78.25 150.404 81.3788 149.101 84.0909C147.798 86.7879 145.987 88.9015 143.669 90.4318C141.366 91.9621 138.707 92.7273 135.692 92.7273ZM135.692 89.0227C138.116 89.0227 140.169 88.3712 141.851 87.0682C143.533 85.7652 144.805 84.0303 145.669 81.8636C146.548 79.697 146.987 77.3106 146.987 74.7045C146.987 72.0985 146.548 69.7045 145.669 67.5227C144.805 65.3409 143.533 63.5909 141.851 62.2727C140.169 60.9545 138.116 60.2955 135.692 60.2955C133.283 60.2955 131.229 60.9545 129.533 62.2727C127.851 63.5909 126.57 65.3409 125.692 67.5227C124.828 69.7045 124.396 72.0985 124.396 74.7045C124.396 77.3106 124.828 79.697 125.692 81.8636C126.57 84.0303 127.851 85.7652 129.533 87.0682C131.214 88.3712 133.267 89.0227 135.692 89.0227ZM173.66 57.0909V60.6136H156.5V57.0909H173.66ZM161.864 92V51.9773C161.864 50.0985 162.296 48.5151 163.16 47.2273C164.038 45.9394 165.182 44.9621 166.591 44.2955C168 43.6288 169.493 43.2955 171.069 43.2955C172.129 43.2955 173.008 43.3864 173.705 43.5682C174.417 43.7348 174.978 43.9015 175.387 44.0682L174.205 47.6136C173.902 47.5227 173.531 47.4167 173.091 47.2955C172.652 47.1742 172.099 47.1136 171.432 47.1136C169.675 47.1136 168.319 47.6061 167.364 48.5909C166.41 49.5758 165.932 50.9848 165.932 52.8182L165.91 92H161.864ZM181.093 105.091V57.0909H185.025V63.75H185.503C185.987 62.7045 186.654 61.6364 187.503 60.5455C188.351 59.4394 189.472 58.5076 190.866 57.75C192.275 56.9924 194.048 56.6136 196.184 56.6136C199.063 56.6136 201.578 57.3712 203.73 58.8864C205.896 60.3864 207.578 62.4924 208.775 65.2045C209.987 67.9015 210.593 71.0455 210.593 74.6364C210.593 78.2424 209.987 81.4015 208.775 84.1136C207.578 86.8258 205.896 88.9394 203.73 90.4545C201.578 91.9697 199.078 92.7273 196.23 92.7273C194.124 92.7273 192.359 92.3485 190.934 91.5909C189.525 90.8333 188.381 89.9015 187.503 88.7955C186.639 87.6742 185.972 86.5833 185.503 85.5227H185.139V105.091H181.093ZM185.093 74.5682C185.093 77.3864 185.51 79.8864 186.343 82.0682C187.192 84.2348 188.404 85.9394 189.98 87.1818C191.571 88.4091 193.495 89.0227 195.753 89.0227C198.071 89.0227 200.025 88.3864 201.616 87.1136C203.222 85.8258 204.442 84.0909 205.275 81.9091C206.124 79.7273 206.548 77.2803 206.548 74.5682C206.548 71.8864 206.131 69.4697 205.298 67.3182C204.48 65.1667 203.268 63.4621 201.662 62.2045C200.056 60.9318 198.086 60.2955 195.753 60.2955C193.48 60.2955 191.548 60.9091 189.957 62.1364C188.366 63.3485 187.154 65.0303 186.321 67.1818C185.503 69.3182 185.093 71.7803 185.093 74.5682ZM242.283 64.75L238.578 65.7955C238.215 64.75 237.7 63.803 237.033 62.9545C236.366 62.1061 235.495 61.4318 234.419 60.9318C233.359 60.4318 232.041 60.1818 230.465 60.1818C228.101 60.1818 226.162 60.7424 224.647 61.8636C223.131 62.9848 222.374 64.4318 222.374 66.2045C222.374 67.7045 222.889 68.9242 223.919 69.8636C224.965 70.7879 226.571 71.5227 228.738 72.0682L234.01 73.3636C236.934 74.0758 239.124 75.2045 240.578 76.75C242.048 78.2955 242.783 80.2348 242.783 82.5682C242.783 84.5379 242.238 86.2879 241.147 87.8182C240.056 89.3485 238.533 90.553 236.578 91.4318C234.639 92.2955 232.389 92.7273 229.828 92.7273C226.419 92.7273 223.609 91.9621 221.397 90.4318C219.184 88.8864 217.768 86.6591 217.147 83.75L221.033 82.7955C221.533 84.8712 222.51 86.4394 223.965 87.5C225.434 88.5606 227.366 89.0909 229.76 89.0909C232.442 89.0909 234.586 88.4924 236.192 87.2955C237.798 86.0833 238.601 84.5682 238.601 82.75C238.601 81.3409 238.131 80.1591 237.192 79.2045C236.253 78.2348 234.828 77.5227 232.919 77.0682L227.215 75.7045C224.184 74.9773 221.942 73.8258 220.488 72.25C219.033 70.6742 218.306 68.7197 218.306 66.3864C218.306 64.4621 218.828 62.7727 219.874 61.3182C220.919 59.8485 222.359 58.697 224.192 57.8636C226.025 57.0303 228.116 56.6136 230.465 56.6136C233.662 56.6136 236.215 57.3409 238.124 58.7955C240.048 60.2348 241.434 62.2197 242.283 64.75ZM256.683 45.4545L256.387 78.6591H252.387L252.092 45.4545H256.683ZM254.387 92.3409C253.493 92.3409 252.721 92.0227 252.069 91.3864C251.433 90.7348 251.115 89.9621 251.115 89.0682C251.115 88.1591 251.433 87.3864 252.069 86.75C252.721 86.1136 253.493 85.7955 254.387 85.7955C255.281 85.7955 256.046 86.1136 256.683 86.75C257.334 87.3864 257.66 88.1591 257.66 89.0682C257.66 89.6591 257.508 90.2045 257.205 90.7045C256.918 91.2045 256.524 91.6061 256.024 91.9091C255.539 92.197 254.993 92.3409 254.387 92.3409Z" fill="black"/>
<defs>
<filter id="filter0_d_209_227" x="0" y="0" width="290" height="154" filterUnits="userSpaceOnUse" color-interpolation-filters="sRGB">
<feFlood flood-opacity="0" result="BackgroundImageFix"/>
<feColorMatrix in="SourceAlpha" type="matrix" values="0 0 0 0 0 0 0 0 0 0 0 0 0 0 0 0 0 0 127 0" result="hardAlpha"/>
<feOffset dy="4"/>
<feGaussianBlur stdDeviation="2"/>
<feComposite in2="hardAlpha" operator="out"/>
<feColorMatrix type="matrix" values="0 0 0 0 0 0 0 0 0 0 0 0 0 0 0 0 0 0 0.25 0"/>
<feBlend mode="normal" in2="BackgroundImageFix" result="effect1_dropShadow_209_227"/>
<feBlend mode="normal" in="SourceGraphic" in2="effect1_dropShadow_209_227" result="shape"/>
</filter>
</defs>
</svg>
