<svg width="41" height="42" viewBox="0 0 41 42" fill="none" xmlns="http://www.w3.org/2000/svg">
<path d="M19.285 40.2752C19.0074 40.044 18.4548 39.8508 18.0569 39.8458C17.659 39.8408 16.9303 39.6512 16.4375 39.4245C15.9064 39.1801 15.4799 39.1218 15.3904 39.2813C15.0987 39.801 14.1717 39.5424 13.4893 38.7508C13.1102 38.311 12.3402 37.6421 11.7783 37.2644C11.2165 36.8866 10.0808 35.9581 9.2546 35.2011C8.42843 34.4441 7.59472 33.8247 7.40189 33.8247C6.71133 33.8247 5.19669 31.9248 4.12022 29.7083C3.51773 28.4677 2.73747 27.038 2.38632 26.5311C1.82243 25.7171 1.7524 25.3452 1.78683 23.3473C1.80828 22.1031 1.74042 20.789 1.63604 20.427C1.5088 19.9858 1.60016 19.514 1.91325 18.9956C2.17011 18.5703 2.44308 17.6561 2.51985 16.964C2.6716 15.5959 2.9323 15.3365 4.41835 15.0749C5.06787 14.9606 5.72077 14.546 6.35874 13.8428C6.88757 13.2599 7.73413 12.5726 8.24 12.3155C8.74587 12.0584 9.6124 11.3829 10.1656 10.8145C10.9424 10.0163 11.1364 9.63372 11.0177 9.13481C10.8835 8.57115 10.9831 8.01807 11.5722 6.05537C11.7565 5.44138 11.7313 4.55886 11.5135 3.99655C11.1166 2.97207 11.4613 2.49011 12.7808 2.22471C13.6846 2.0429 14.2009 2.06846 14.5561 2.31267C14.9568 2.58816 15.3409 2.5587 16.4769 2.1653L17.8968 1.67353L18.9356 2.79091L19.9745 3.90825L22.2375 3.90272C23.6247 3.89932 24.8209 3.73934 25.3281 3.48939C26.0579 3.12976 26.2575 3.13651 27.0182 3.5465C27.4926 3.80219 28.6719 4.36243 29.6389 4.79149C31.1327 5.45428 31.4983 5.52087 32.0696 5.23427C32.567 4.98472 32.692 4.76828 32.5497 4.40258C32.0009 2.99152 32.1036 2.42624 33.0225 1.80095C34.6295 0.707404 36.3312 1.19446 36.3312 2.74796C36.3312 3.11076 36.0381 4.13731 35.6798 5.02919C35.0739 6.53772 35.0558 6.70898 35.4204 7.48528C35.7375 8.16038 35.7647 8.69073 35.5626 10.2619C35.2775 12.4782 35.5214 13.171 36.8537 13.9295C37.2813 14.173 37.6312 14.5101 37.6312 14.6786C37.6312 14.847 37.8448 15.3268 38.1059 15.7448C38.3669 16.1627 38.7302 16.9181 38.9131 17.4235C39.2103 18.2446 39.1875 18.4237 38.6985 19.1082C37.9312 20.1823 38.0079 21.0039 38.9467 21.7682C39.5486 22.2581 39.7226 22.6022 39.6618 23.1818C39.5927 23.8402 39.461 23.9475 38.7257 23.9445C38.075 23.9419 37.8451 24.079 37.7657 24.5171C37.4237 26.4027 37.3833 27.2147 37.6233 27.378C37.9359 27.5907 37.976 29.2267 37.6812 29.7377C37.57 29.9303 36.9575 30.3913 36.3201 30.7621C35.3141 31.3473 35.1421 31.5844 35.0169 32.5589C34.9375 33.1764 34.7294 33.97 34.5544 34.3224C34.2204 34.9946 34.1687 35.0143 31.2609 35.5731C30.2599 35.7654 29.076 36.1593 28.6301 36.4483C28.1842 36.7374 27.6577 36.9735 27.46 36.973C27.2624 36.9726 26.6327 37.2193 26.0607 37.5212C25.4886 37.8232 24.6988 38.2072 24.3056 38.3747C23.8103 38.5857 23.5905 38.8835 23.5905 39.3438C23.5905 39.7094 23.4501 40.1631 23.2785 40.352C22.8281 40.8479 19.9052 40.7917 19.285 40.2752Z" fill="#5BC0BE" stroke="black" stroke-width="2"/>
</svg>
