<svg width="374" height="156" viewBox="0 0 374 156" fill="none" xmlns="http://www.w3.org/2000/svg">
<path d="M13.3015 154.273C12.7024 153.878 12.1436 153.332 12.0596 153.059C11.7786 152.148 10.6626 151.003 9.66171 150.6C8.60681 150.175 4.8388 149.558 3.29669 149.558C1.92882 149.558 1 148.643 1 147.295C1 146.703 1.08428 146.126 1.18729 146.012C1.2903 145.899 1.34042 145.369 1.29867 144.836C1.23139 143.976 1.34249 143.782 2.27628 143.133C3.48057 142.296 4.52436 142.197 5.18614 142.856C5.43743 143.107 6.14328 143.435 6.7547 143.587C8.61169 144.046 10.7366 143.282 12.5706 141.495C12.8566 141.216 13.3804 140.74 13.7345 140.437C14.3217 139.935 14.3476 139.823 14.0289 139.167C13.589 138.262 13.8272 137.821 14.7558 137.821C15.1542 137.821 15.6827 137.574 15.9301 137.273C16.1776 136.972 17.1826 136.436 18.1635 136.082C19.9101 135.452 19.9718 135.449 21.1509 135.945C22.0707 136.331 22.534 136.765 23.1131 137.78C24.1402 139.58 24.1029 140.464 22.9437 141.787C22.4282 142.376 21.576 143.817 21.0501 144.991C20.2938 146.679 19.9598 147.145 19.4524 147.223C18.5224 147.364 17.9009 148.094 17.9009 149.044C17.9009 149.5 17.7051 150.285 17.4658 150.789C17.2266 151.293 17.0556 152.139 17.086 152.669C17.2169 154.955 15.4618 155.699 13.3015 154.273Z" fill="#5BC0BE" stroke="black" stroke-width="2"/>
<path d="M115.045 123.422C114.558 122.885 114.401 122.418 114.412 121.532C114.428 120.253 114.033 119.499 113.346 119.499C112.662 119.499 112.286 118.899 112.286 117.81C112.286 116.975 112.064 116.579 110.956 115.434C110.225 114.678 109.537 114.059 109.427 114.059C109.152 114.059 107.221 110.726 106.731 109.407C106.511 108.817 106.22 108.334 106.083 108.334C105.763 108.334 104.706 106.289 104.11 104.515C103.811 103.626 103.699 102.759 103.797 102.094C103.93 101.194 103.84 100.941 103.113 100.158C102.652 99.6622 101.632 98.3287 100.845 97.1944C100.059 96.06 99.064 94.9281 98.635 94.679C98.206 94.4298 97.769 94.0829 97.664 93.908C97.0268 92.8477 98.0183 91.443 99.4039 91.443C99.9673 91.443 101.131 90.9621 102.521 90.1547C103.741 89.4462 104.987 88.8665 105.29 88.8665C105.593 88.8665 106.188 89.1885 106.613 89.5822C107.378 90.2908 107.832 90.3796 110.596 90.3605C111.168 90.3565 112.162 90.1494 112.806 89.9003C113.449 89.6512 114.241 89.4455 114.564 89.4432C114.888 89.4409 115.385 89.3102 115.669 89.1528C115.954 88.9953 116.418 88.7376 116.702 88.5802C117.279 88.2604 119.287 88.2429 121.256 88.5406C122.666 88.7538 124.272 88.2817 125.897 87.1759C126.552 86.7299 127.164 86.587 128.295 86.6157C129.698 86.6513 129.865 86.586 130.494 85.7564C130.937 85.1713 131.411 84.8585 131.853 84.8585C132.358 84.8585 132.552 84.6943 132.614 84.2144C132.659 83.8601 132.961 83.4426 133.284 83.2865C133.607 83.1305 133.933 82.8084 134.008 82.5708C134.083 82.3332 134.518 81.8802 134.975 81.5642C135.48 81.2151 136.076 80.3722 136.494 79.417C137.32 77.5278 138.976 75.9669 140.477 75.664C142.28 75.2998 143.487 74.729 143.487 74.2404C143.487 73.9884 143.72 73.55 144.005 73.2661C144.488 72.7855 144.609 72.7801 145.761 73.1887C146.636 73.499 147.142 73.5438 147.491 73.3417C147.992 73.0514 149.085 73.1475 151.407 73.6858C152.313 73.896 152.97 73.8935 153.617 73.6775C155.122 73.1754 156.586 72.4702 157.088 72.0064C157.466 71.6566 157.655 71.6391 158.059 71.9169C158.335 72.1068 158.722 72.2621 158.92 72.2621C159.541 72.2621 160.646 73.4196 161.056 74.5004C161.392 75.3842 161.4 75.73 161.115 76.7983C160.897 77.6104 160.58 78.1388 160.218 78.2904C159.911 78.4194 159.582 78.6618 159.488 78.8289C159.394 78.9961 159.088 79.1329 158.808 79.1329C158.528 79.1329 157.155 79.777 155.758 80.5643C154.36 81.3516 153.037 81.9957 152.818 81.9957C152.333 81.9957 151.498 82.9972 151.08 84.0793C150.911 84.5167 150.566 84.957 150.315 85.0578C150.063 85.1586 149.012 86.118 147.979 87.1898C146.945 88.2616 145.775 89.2238 145.378 89.3281C144.27 89.6195 142.611 91.25 142.315 92.3384C142.127 93.0272 142.141 93.591 142.365 94.3058C142.95 96.1777 142.646 97.6305 141.497 98.4595C141.156 98.7058 140.887 99.1837 140.887 99.545C140.887 99.8999 140.699 100.486 140.469 100.847C139.589 102.232 137.825 105.958 137.661 106.783C137.566 107.258 137.481 108.388 137.471 109.295C137.458 110.432 137.327 111.049 137.048 111.285C136.308 111.908 132.307 116.366 132.3 116.574C132.296 116.687 131.484 117.546 130.495 118.483C129.506 119.421 128.629 120.481 128.548 120.841C128.375 121.598 127.277 122.015 126.742 121.526C126.078 120.919 122.898 121.75 121.401 122.922C121.035 123.208 120.151 123.518 119.436 123.61C118.721 123.702 117.586 123.858 116.914 123.956C115.842 124.113 115.613 124.047 115.045 123.422Z" fill="#5BC0BE" stroke="black" stroke-width="2"/>
<path d="M71.4638 121.879C71.1063 121.802 70.5798 121.512 70.2937 121.234C70.0077 120.956 69.5982 120.643 69.3837 120.539C67.8827 119.806 66.6468 118.686 66.5725 117.993C66.5263 117.562 66.2844 117.163 66.0105 117.068C65.2488 116.801 64.1251 114.999 64.3134 114.346C64.4028 114.036 64.4759 112.956 64.4759 111.947C64.4759 110.813 64.6157 109.909 64.8414 109.581C65.0425 109.288 65.2129 108.792 65.2201 108.477C65.2274 108.162 65.5529 107.346 65.9434 106.664C66.5095 105.676 66.9438 105.305 68.0836 104.834C70.2111 103.954 71.6321 103.858 72.4666 104.534C72.9343 104.914 73.777 105.148 75.104 105.269C76.8498 105.427 77.1286 105.536 77.7655 106.317C78.1567 106.796 78.6722 107.189 78.911 107.189C79.1498 107.189 79.7384 107.519 80.2191 107.922C80.6997 108.326 81.62 108.913 82.2642 109.227C83.5155 109.836 84.2587 111.123 84.5593 113.2C84.639 113.752 84.7782 114.481 84.8686 114.821C84.9956 115.299 84.7839 115.706 83.9374 116.61C83.3347 117.254 82.7225 117.781 82.5769 117.781C82.4312 117.781 81.5791 118.49 80.6832 119.356C79.7873 120.222 78.944 120.93 78.8092 120.93C78.6744 120.93 78.2243 121.111 77.8091 121.331C77.0297 121.745 72.6139 122.126 71.4638 121.879Z" fill="#5BC0BE" stroke="black" stroke-width="2"/>
<path d="M335.091 57.7411C334.938 57.7435 334.785 57.757 334.611 57.7923C334.103 57.8947 333.215 58.0124 332.643 58.0482C331.574 58.1149 331.326 58.1999 329.513 59.1229C328.931 59.4189 328.293 59.6678 328.087 59.6688C327.882 59.6698 326.941 60.1011 326.011 60.6242C324.329 61.571 324.323 61.5715 324.245 62.8931C324.201 63.6233 324.304 64.4959 324.462 64.8209C324.697 65.3053 324.586 65.7322 323.904 67.1922C323.446 68.1715 322.966 69.2043 322.835 69.4952C322.703 69.7861 322.639 70.5287 322.68 71.15C322.737 72.0146 322.592 72.5024 322.076 73.2142C321.705 73.7257 320.605 75.8646 319.628 77.9568C318.531 80.3042 317.537 82.04 317.025 82.5117C316.568 82.9322 315.717 83.6976 315.15 84.2006C314.048 85.1777 313.644 86.2543 313.011 89.728C312.703 91.4204 312.538 91.73 311.183 93.174C309.867 94.5775 309.635 94.9824 309.246 96.6883C309.005 97.7497 308.877 98.8334 308.967 99.0937C309.058 99.3541 309.064 100.473 308.967 101.584C308.796 103.564 308.762 103.635 307.449 104.962C304.073 108.374 298.629 112.05 295.456 113.066C293.789 113.599 290.379 113.763 288.67 113.39C287.36 113.104 286.749 113.64 286.749 115.045C286.749 115.618 286.556 116.177 286.237 116.495C285.609 117.121 285.573 117.59 286.129 118.098C286.479 118.418 286.672 118.39 287.322 117.979C288.351 117.329 289.814 117.368 291.629 118.081C293.178 118.69 294.473 119.023 297.548 119.634C300.909 120.301 300.751 120.369 303.312 117.569C304.575 116.189 306.062 114.385 306.628 113.56C307.193 112.736 307.756 112.059 307.867 112.059C307.979 112.059 308.372 111.546 308.751 110.916C309.129 110.286 309.635 109.761 309.866 109.756C310.097 109.751 310.518 109.561 310.796 109.33C311.073 109.098 311.765 108.905 312.345 108.903C312.926 108.901 313.985 108.695 314.7 108.442C316.253 107.894 317.179 107.661 320.945 106.924C325.26 106.079 325.957 105.872 327.065 105.065C327.879 104.471 328.395 104.331 329.652 104.331C331.168 104.331 331.274 104.286 332.395 103.052C333.035 102.347 333.557 101.57 333.557 101.329C333.557 101.087 333.857 100.604 334.223 100.254C334.734 99.7644 334.874 99.3725 334.827 98.599C334.75 97.3071 335.035 96.3701 335.804 95.3577C336.142 94.9126 336.423 94.3137 336.423 94.027C336.423 93.5689 337.242 91.631 338.376 89.438C338.844 88.5324 338.836 87.4888 338.36 86.5719C338.156 86.1783 337.993 85.2319 337.988 84.4736C337.983 83.7153 337.841 82.8285 337.678 82.4947C337.425 81.9736 337.489 81.7858 338.128 81.1811C338.891 80.458 339.801 78.5961 339.801 77.735C339.801 77.4688 339.948 77.0791 340.127 76.882C340.62 76.3383 340.742 70.1814 340.297 68.4716C340.163 67.9578 340.065 66.6044 340.065 65.4521C340.065 62.5109 339.457 60.6504 338.329 60.0612C337.846 59.8085 337.461 59.428 337.461 59.2253C337.461 59.0226 337.03 58.5798 336.501 58.2358C335.954 57.8808 335.548 57.7338 335.091 57.7411Z" fill="#5BC0BE" stroke="black" stroke-width="2"/>
<path d="M24.5783 83.8893C23.6711 82.8904 23.1011 81.1442 23.1013 79.3641C23.1015 78.0727 21.6491 75.0538 20.3061 73.5538C19.5564 72.7166 19.201 72.0714 19.201 71.5478C19.201 70.6571 18.6109 69.3899 17.544 67.9896C16.594 66.7427 15.0408 63.193 15.0408 62.2688C15.0408 61.8618 14.596 60.9826 13.989 60.1901C13.1763 59.1289 12.903 58.4981 12.7864 57.4146C12.6439 56.0893 12.6835 55.9673 13.5086 55.191C13.9888 54.7392 14.6762 53.9985 15.0362 53.5449C16.4467 51.7681 17.8077 50.4895 18.593 50.2037C19.0451 50.0391 19.4802 49.7175 19.5599 49.4889C19.766 48.8974 21.6373 48.9404 22.0943 49.5471C22.9738 50.7147 25.734 51.1849 27.7797 50.5156C28.9248 50.141 30.7892 50.1321 31.4106 50.4982C32.0323 50.8646 33.0646 52.827 33.7267 54.9011C34.0178 55.8129 34.6713 57.0651 35.1789 57.6837C35.8379 58.4868 36.1016 59.0745 36.1009 59.7382C36.0998 60.8152 35.3266 62.3524 34.5584 62.8051C33.5821 63.3804 32.8183 65.9749 33.4277 66.6459C33.9178 67.1855 34.2566 69.5885 34.0177 70.8308C33.8815 71.5393 33.706 72.7057 33.6276 73.4227C33.5172 74.4339 33.2247 75.0542 32.3234 76.1885C31.6844 76.9928 31.1616 77.7769 31.1616 77.931C31.1616 78.0851 30.6384 78.9937 29.9989 79.9501C29.3595 80.9065 28.653 82.1721 28.4289 82.7624C27.8351 84.3274 27.3005 84.8586 26.3198 84.8586C25.6879 84.8586 25.2243 84.6006 24.5783 83.8893Z" fill="#5BC0BE" stroke="black" stroke-width="2"/>
<path d="M364.67 1.00066C364.118 0.987654 363.564 1.16587 363.105 1.56363C362.556 2.03876 362.423 2.41225 362.423 3.38902C362.423 4.05989 362.498 4.68293 362.593 4.78791C362.969 5.20089 364.868 4.96675 365.708 4.39554C366.933 3.56205 367.129 2.5106 366.219 1.64893C365.777 1.22991 365.222 1.01367 364.67 1.00066Z" fill="#5BC0BE" stroke="black" stroke-width="2"/>
<path d="M363.755 12.2088C363.312 12.6891 363.396 13.0457 363.306 13.2836C363.216 13.5214 363.076 13.9795 362.996 14.2901C362.729 15.3253 362.251 16.1441 361.555 16.7467C360.714 17.4748 360.66 18.2674 361.431 18.8621C362.113 19.3881 364.306 18.4028 364.624 17.817L365.466 16.263C365.71 15.8124 367.034 15.7668 367.334 15.4672C368.273 14.5319 367.807 12.7283 366.622 12.7036C366.382 12.6986 365.954 12.5082 365.677 12.2771C365.059 11.7625 364.199 11.7286 363.755 12.2088Z" fill="#5BC0BE" stroke="black" stroke-width="2"/>
<path d="M365.514 18.2223C365.274 18.4784 363.956 20.345 363.848 20.7386C363.741 21.1323 363.486 21.7075 363.29 22.0181C363.095 22.3287 362.934 22.9917 362.934 23.5023C362.934 24.4566 361.648 26.4536 361.028 26.4536C360.862 26.4536 360.284 26.1307 359.758 25.7371C358.608 24.8771 357.324 24.8136 355.977 25.5494C355.326 25.9053 354.646 26.0451 353.901 25.9589C352.871 25.8397 352.716 25.9111 351.561 27.1701C349.997 28.8764 349.783 28.9807 345.906 29.7973C345.477 29.8877 344.89 30.1815 344.604 30.4456C344.318 30.7096 343.753 31.1037 343.334 31.3327C342.071 32.0233 339.954 34.3207 339.336 35.6829C338.842 36.7719 338.763 37.4259 338.763 40.0672V43.1721L337.477 44.5198C336.772 45.2601 335.953 45.9543 335.664 46.0552C334.944 46.3068 334.834 46.9636 335.215 48.5629C335.643 50.3615 335.964 50.704 336.888 50.3201C337.371 50.1193 337.803 50.1133 338.19 50.303C338.578 50.4938 338.959 50.4908 339.367 50.286C339.734 50.1021 340.122 50.0807 340.343 50.2348C340.545 50.3751 340.979 50.5053 341.304 50.5077C341.694 50.5106 341.978 50.7528 342.141 51.2242C342.293 51.6647 342.589 51.9407 342.915 51.9408C343.616 51.9408 346.304 48.7589 346.712 47.4541C346.885 46.8996 347.065 46.415 347.114 46.3622C347.163 46.3095 347.929 45.992 348.819 45.6628C349.873 45.2726 351.097 45.0657 352.336 45.0657C353.524 45.0657 354.432 44.9189 354.753 44.6733C355.035 44.4573 355.639 44.2003 356.086 44.0933C356.532 43.9863 357.158 43.5835 357.48 43.2062C358.087 42.4944 359.015 42.1671 360.641 42.0803C361.317 42.0442 362.22 41.5507 363.786 40.3914C364.997 39.4955 366.11 38.7707 366.25 38.7707C366.39 38.7707 366.977 38.1416 367.567 37.3718C368.491 36.1651 368.641 35.7869 368.62 34.6764C368.605 33.8483 368.833 32.7972 369.271 31.7421C370.12 29.7 370.136 28.9146 369.318 27.7331L368.667 26.7948L369.659 25.8395C370.203 25.3126 370.853 24.7516 371.1 24.5941C371.62 24.2624 372.02 22.5854 372.029 20.7216C372.035 19.5313 371.94 19.3238 370.883 18.3503C370.248 17.7658 369.513 17.2926 369.24 17.2926C368.968 17.2926 368.523 17.0445 368.264 16.7296C367.631 15.9588 366.173 17.2864 365.514 18.2223Z" fill="#5BC0BE" stroke="black" stroke-width="2"/>
</svg>
